<svg fill="currentColor" width="135" height="40" viewBox="0 0 135 40" xmlns="http://www.w3.org/2000/svg" class="text-mezo-10" data-v-f9d4c0fc=""><path fill-rule="evenodd" clip-rule="evenodd" d="M56.9095 6.95C56.0549 6.95 55.3406 7.24023 54.7602 7.82071C54.1799 8.40096 53.8895 9.11508 53.8895 9.99C53.8895 10.8649 54.1799 11.579 54.7602 12.1593C55.3406 12.7398 56.0549 13.03 56.9095 13.03C57.3768 13.03 57.8097 12.9425 58.2022 12.7319L58.2073 12.7291C58.5761 12.5582 58.8928 12.3302 59.1436 12.0455L58.743 11.6449C58.23 12.1924 57.617 12.47 56.8995 12.47C56.2145 12.47 55.6391 12.2406 55.1695 11.7815C54.6973 11.3197 54.4695 10.7123 54.4695 9.98C54.4695 9.24767 54.6973 8.64029 55.1695 8.1785C55.6392 7.71927 56.2247 7.49 56.8995 7.49C57.5974 7.49 58.1542 7.7243 58.5771 8.20382L58.9709 7.82461C58.4389 7.24456 57.7485 6.95 56.9095 6.95ZM54.6187 7.67929C55.2383 7.05977 56.004 6.75 56.9095 6.75C57.837 6.75 58.6052 7.09151 59.1852 7.76473L59.247 7.83641L58.56 8.49789L58.4915 8.41266C58.1023 7.92851 57.5822 7.69 56.8995 7.69C56.2742 7.69 55.7397 7.90073 55.3094 8.3215C54.8817 8.73971 54.6695 9.29233 54.6695 9.98C54.6695 10.6677 54.8817 11.2203 55.3094 11.6385C55.7399 12.0594 56.2644 12.27 56.8995 12.27C57.5882 12.27 58.1716 11.9943 58.6644 11.434L58.7348 11.3539L59.4142 12.0333L59.3569 12.1033C59.0767 12.4457 58.715 12.7141 58.2941 12.9095C57.8673 13.1379 57.4011 13.23 56.9095 13.23C56.004 13.23 55.2383 12.9202 54.6187 12.3007C53.999 11.681 53.6895 10.9151 53.6895 9.99C53.6895 9.06492 53.999 8.29904 54.6187 7.67929ZM47.6682 7.70996C48.2779 7.07971 49.0342 6.76978 49.9398 6.76978C50.8358 6.76978 51.5917 7.08001 52.2111 7.70965C52.8193 8.33852 53.1298 9.10413 53.1298 9.99977C53.1298 10.905 52.8202 11.6703 52.2114 12.2896C51.6016 12.9198 50.8453 13.2298 49.9398 13.2298C49.034 13.2298 48.2777 12.9197 47.6679 12.2893C47.0591 11.6598 46.7598 10.8946 46.7598 9.99977C46.7598 9.10562 47.0587 8.32995 47.6682 7.70996ZM49.9398 6.96978C49.0855 6.96978 48.3819 7.25974 47.8116 7.8493C47.2413 8.42926 46.9598 9.15407 46.9598 9.99977C46.9598 10.845 47.2405 11.5597 47.8116 12.1503C48.3819 12.7398 49.0855 13.0298 49.9398 13.0298C50.794 13.0298 51.4977 12.7398 52.0679 12.1503C52.6389 11.5696 52.9298 10.8545 52.9298 9.99977C52.9298 9.15556 52.6397 8.44068 52.0682 7.84961C51.4876 7.25945 50.7836 6.96978 49.9398 6.96978ZM82.3186 7.70996C82.9283 7.07971 83.6846 6.76978 84.5902 6.76978C85.4862 6.76978 86.2421 7.08001 86.8614 7.70965C87.4697 8.33852 87.7802 9.10413 87.7802 9.99977L87.7801 10.0009C87.7699 10.9044 87.4711 11.6697 86.8617 12.2896C86.252 12.9198 85.4957 13.2298 84.5902 13.2298C83.6844 13.2298 82.9281 12.9197 82.3183 12.2893C81.7095 11.6598 81.4102 10.8946 81.4102 9.99977C81.4102 9.10562 81.7091 8.32995 82.3186 7.70996ZM84.5902 6.96978C83.7359 6.96978 83.0323 7.25974 82.462 7.8493C81.8917 8.42926 81.6102 9.15407 81.6102 9.99977C81.6102 10.845 81.8909 11.5597 82.462 12.1503C83.0323 12.7398 83.7359 13.0298 84.5902 13.0298C85.4444 13.0298 86.148 12.7398 86.7183 12.1503C87.2886 11.5702 87.5704 10.8552 87.5802 9.99898C87.58 9.15508 87.2899 8.44044 86.7185 7.84954C86.1379 7.25943 85.4339 6.96978 84.5902 6.96978ZM41.35 6.8999H45.56V12.1599H46.23V14.3699H45.29V13.0999H40.94V14.3699H40V12.1599H40.6521C41.1214 11.7348 41.3597 11.0182 41.35 9.96082L41.35 6.8999ZM41.55 7.0999V9.95944C41.56 11.0613 41.3079 11.8574 40.7554 12.3355L40.7273 12.3599H40.2V14.1699H40.74V12.8999H45.49V14.1699H46.03V12.3599H45.36V7.0999H41.55ZM59.8604 6.8999H64.1803V7.8399H62.5003V13.0999H61.5404V7.8399H59.8604V6.8999ZM60.0604 7.0999V7.6399H61.7404V12.8999H62.3003V7.6399H63.9803V7.0999H60.0604ZM64.4446 6.8999H65.5758L67.0042 10.2199L68.4036 6.8999H69.5345L67.2016 12.0999C67.2016 12.1001 67.2017 12.0998 67.2016 12.0999C67.0419 12.4655 66.8377 12.7489 66.587 12.9406C66.3349 13.1334 66.0408 13.2299 65.71 13.2299C65.515 13.2299 65.3022 13.1866 65.0721 13.0925L64.9895 13.0587L65.2476 12.1427L65.3574 12.2019C65.4765 12.266 65.5903 12.2999 65.71 12.2999C65.8816 12.2999 65.9972 12.2708 66.0727 12.218C66.1505 12.1635 66.2313 12.0534 66.3086 11.8793L66.3091 11.8782L66.5101 11.4397L64.4446 6.8999ZM64.7554 7.0999L66.7299 11.4401L66.4914 11.9605C66.4913 11.9607 66.4915 11.9603 66.4914 11.9605C66.4088 12.1462 66.3094 12.2964 66.1873 12.3818C66.0628 12.469 65.8984 12.4999 65.71 12.4999C65.5916 12.4999 65.4808 12.4747 65.3742 12.431L65.231 12.9392C65.4076 13.0024 65.5671 13.0299 65.71 13.0299C65.9992 13.0299 66.2501 12.9464 66.4655 12.7817C66.6822 12.616 66.8681 12.3641 67.0183 12.0199L67.0188 12.019L69.2255 7.0999H68.5364L67.0864 10.5399H66.9242L65.4442 7.0999H64.7554ZM70.1494 6.8999H74.6894V13.0999H73.7194V7.8399H71.1194V13.0999H70.1494V6.8999ZM70.3494 7.0999V12.8999H70.9194V7.6399H73.9194V12.8999H74.4894V7.0999H70.3494ZM75.8604 6.8999H76.8303V9.4699H79.6303V6.8999H80.6003V13.0999H79.6303V10.3899H76.8303V13.0999H75.8604V6.8999ZM76.0603 7.0999V12.8999H76.6303V10.1899H79.8303V12.8999H80.4003V7.0999H79.8303V9.6699H76.6303V7.0999H76.0603ZM90.7197 6.8999H92.9897C93.4844 6.8999 93.9178 7.06898 94.2759 7.38492L94.2771 7.386C94.6372 7.71436 94.8297 8.13091 94.8297 8.6299C94.8297 8.93625 94.7556 9.20728 94.5918 9.43708C94.467 9.61978 94.3156 9.76444 94.1289 9.87498C94.3671 9.98452 94.5659 10.1444 94.7293 10.3594C94.9322 10.6263 95.0397 10.9274 95.0397 11.2799C95.0397 11.7976 94.8482 12.2351 94.4662 12.5746C94.0884 12.9104 93.6349 13.0899 93.1197 13.0899H90.7197V6.8999ZM94.5918 9.43708C94.5916 9.43739 94.5913 9.43771 94.5911 9.43803L94.5097 9.3799L94.5924 9.43624C94.5922 9.43652 94.592 9.4368 94.5918 9.43708ZM90.9197 7.0999V12.8899H93.1197C93.5845 12.8899 93.9911 12.7294 94.3333 12.4252C94.6713 12.1247 94.8397 11.7422 94.8397 11.2799C94.8397 10.9724 94.7473 10.7135 94.5701 10.4804C94.3925 10.2468 94.1694 10.0885 93.8881 9.99477L93.8197 9.97198V9.80465L93.8795 9.77837C94.1122 9.67598 94.2875 9.52825 94.4271 9.32357L94.4284 9.32178C94.5641 9.13177 94.6297 8.90313 94.6297 8.6299C94.6297 8.18918 94.4624 7.8259 94.143 7.53435C93.8211 7.25063 93.4348 7.0999 92.9897 7.0999H90.9197ZM49.9398 7.70978C49.3251 7.70978 48.8014 7.92002 48.3813 8.34969C47.9608 8.77972 47.7398 9.32406 47.7398 9.99977C47.7398 10.6755 47.9608 11.2198 48.3813 11.6499C48.8014 12.0795 49.3251 12.2898 49.9398 12.2898C50.5544 12.2898 51.0781 12.0795 51.4983 11.6499C51.9187 11.2198 52.1398 10.6755 52.1398 9.99977C52.1398 9.32303 51.9281 8.77955 51.4991 8.35049L51.4983 8.34969C51.0781 7.92002 50.5544 7.70978 49.9398 7.70978ZM48.2383 8.20986C48.6982 7.73953 49.2744 7.50978 49.9398 7.50978C50.6049 7.50978 51.1811 7.7394 51.6409 8.20946C52.1115 8.68034 52.3398 9.27672 52.3398 9.99977C52.3398 10.7241 52.1008 11.3197 51.6413 11.7897C51.1814 12.26 50.6051 12.4898 49.9398 12.4898C49.2744 12.4898 48.6982 12.26 48.2383 11.7897C47.7787 11.3197 47.5398 10.7241 47.5398 9.99977C47.5398 9.27549 47.7787 8.67983 48.2383 8.20986ZM84.5902 7.70978C83.9755 7.70978 83.4518 7.92002 83.0317 8.34969C82.6112 8.77972 82.3902 9.32406 82.3902 9.99977C82.3902 10.6765 82.6018 11.22 83.0309 11.6491L83.0317 11.6499C83.4518 12.0795 83.9755 12.2898 84.5902 12.2898C85.2048 12.2898 85.7285 12.0795 86.1487 11.6499C86.5691 11.2198 86.7902 10.6755 86.7902 9.99977C86.7902 9.32303 86.5785 8.77955 86.1494 8.35049L86.1487 8.34969C85.7285 7.92002 85.2048 7.70978 84.5902 7.70978ZM82.8887 8.20986C83.3485 7.73953 83.9248 7.50978 84.5902 7.50978C85.2553 7.50978 85.8314 7.7394 86.2913 8.20946C86.7619 8.68034 86.9902 9.27672 86.9902 9.99977C86.9902 10.7241 86.7512 11.3197 86.2917 11.7897C85.8318 12.26 85.2555 12.4898 84.5902 12.4898C83.925 12.4898 83.3489 12.2602 82.8891 11.7901C82.4184 11.3192 82.1902 10.7228 82.1902 9.99977C82.1902 9.27549 82.4291 8.67983 82.8887 8.20986ZM91.4897 7.6299H93.0197C93.3266 7.6299 93.5738 7.74085 93.7633 7.95218C93.9597 8.15992 94.0497 8.39398 94.0497 8.6499C94.0497 8.90626 93.9594 9.14067 93.7623 9.34868C93.5625 9.55956 93.3059 9.6699 92.9897 9.6699H91.4897V7.6299ZM91.6897 7.8299V9.4699H92.9897C93.2536 9.4699 93.4569 9.38024 93.6171 9.21113C93.7801 9.03913 93.8497 8.85354 93.8497 8.6499C93.8497 8.44626 93.7801 8.26067 93.6171 8.08868L93.6152 8.08661C93.4649 7.91862 93.2724 7.8299 93.0197 7.8299H91.6897ZM42.13 7.6399H44.79V12.3699H41.474L41.5766 12.2148C41.9525 11.6461 42.1399 10.9075 42.13 9.97095L42.13 9.9699L42.13 7.6399ZM42.33 7.8399V9.96937C42.3392 10.853 42.1779 11.5834 41.8393 12.1699H44.59V7.8399H42.33ZM91.4797 10.1899H93.0997C93.4355 10.1899 93.7118 10.31 93.9213 10.5301C94.1384 10.7475 94.2397 10.9922 94.2397 11.2699C94.2397 11.5498 94.1268 11.792 93.9356 12.015C93.7341 12.2501 93.4648 12.3599 93.1397 12.3599H91.4797V10.1899ZM93.9213 10.5301C93.9216 10.5304 93.9219 10.5307 93.9222 10.531L93.8497 10.5999L93.9204 10.5292C93.9207 10.5295 93.921 10.5298 93.9213 10.5301ZM91.6797 10.3899V12.1599H93.1397C93.4147 12.1599 93.6253 12.0697 93.7838 11.8848C93.9527 11.6878 94.0397 11.49 94.0397 11.2699C94.0397 11.048 93.9614 10.853 93.779 10.6706L93.7772 10.6688C93.6069 10.4895 93.3835 10.3899 93.0997 10.3899H91.6797Z" fill="black"></path><path fill-rule="evenodd" clip-rule="evenodd" d="M54.6895 12.23C55.2895 12.83 56.0295 13.13 56.9095 13.13C57.3895 13.13 57.8395 13.04 58.2495 12.82C58.6595 12.63 59.0095 12.37 59.2795 12.04L58.7395 11.5C58.2295 12.08 57.6195 12.37 56.8995 12.37C56.2395 12.37 55.6895 12.15 55.2395 11.71C54.7895 11.27 54.5695 10.69 54.5695 9.98C54.5695 9.27 54.7895 8.69 55.2395 8.25C55.6895 7.81 56.2495 7.59 56.8995 7.59C57.6095 7.59 58.1595 7.84 58.5695 8.35L59.1095 7.83C58.5495 7.18 57.8095 6.85 56.9095 6.85C56.0295 6.85 55.2895 7.15 54.6895 7.75C54.0895 8.35 53.7895 9.09 53.7895 9.99C53.7895 10.89 54.0895 11.63 54.6895 12.23ZM52.1398 12.2198C51.5498 12.8298 50.8198 13.1298 49.9398 13.1298C49.0598 13.1298 48.3298 12.8298 47.7398 12.2198C47.1498 11.6098 46.8598 10.8698 46.8598 9.99977C46.8598 9.12977 47.1498 8.37977 47.7398 7.77977C48.3298 7.16977 49.0598 6.86977 49.9398 6.86977C50.8098 6.86977 51.5398 7.16977 52.1398 7.77977C52.7298 8.38977 53.0298 9.12977 53.0298 9.99977C53.0298 10.8798 52.7298 11.6198 52.1398 12.2198ZM48.3098 11.7198C48.7498 12.1698 49.2998 12.3898 49.9398 12.3898C50.5798 12.3898 51.1298 12.1698 51.5698 11.7198C52.0098 11.2698 52.2398 10.6998 52.2398 9.99977C52.2398 9.29977 52.0198 8.72977 51.5698 8.27977C51.1298 7.82977 50.5798 7.60977 49.9398 7.60977C49.2998 7.60977 48.7498 7.82977 48.3098 8.27977C47.8698 8.72977 47.6398 9.29977 47.6398 9.99977C47.6398 10.6998 47.8698 11.2698 48.3098 11.7198ZM40.84 14.2699H40.1V12.2599H40.69C41.21 11.8099 41.46 11.0499 41.45 9.9599V6.9999H45.46V12.2599H46.13V14.2699H45.39V12.9999H40.84V14.2699ZM42.23 9.9699C42.24 10.9199 42.05 11.6799 41.66 12.2699H44.69V7.7399H42.23V9.9699ZM62.4004 12.9999H61.6404V7.7399H59.9604V6.9999H64.0804V7.7399H62.4004V12.9999ZM67.11 12.0599L69.38 6.9999H68.47L67.02 10.4399H66.99L65.51 6.9999H64.6L66.62 11.4399L66.4 11.9199C66.32 12.0999 66.23 12.2299 66.13 12.2999C66.03 12.3699 65.89 12.3999 65.71 12.3999C65.57 12.3999 65.44 12.3599 65.31 12.2899L65.11 12.9999C65.33 13.0899 65.53 13.1299 65.71 13.1299C66.33 13.1299 66.8 12.7699 67.11 12.0599ZM70.2494 12.9999V6.9999H74.5894V12.9999H73.8194V7.7399H71.0194V12.9999H70.2494ZM75.9604 6.9999V12.9999H76.7304V10.2899H79.7304V12.9999H80.5004V6.9999H79.7304V9.5699H76.7304V6.9999H75.9604ZM86.7902 12.2198C86.2002 12.8298 85.4702 13.1298 84.5902 13.1298C83.7102 13.1298 82.9802 12.8298 82.3902 12.2198C81.8002 11.6098 81.5102 10.8698 81.5102 9.99977C81.5102 9.12977 81.8002 8.37977 82.3902 7.77977C82.9802 7.16977 83.7102 6.86977 84.5902 6.86977C85.4602 6.86977 86.1902 7.16977 86.7902 7.77977C87.3802 8.38977 87.6802 9.12977 87.6802 9.99977C87.6702 10.8798 87.3802 11.6198 86.7902 12.2198ZM82.9602 11.7198C83.4002 12.1698 83.9502 12.3898 84.5902 12.3898C85.2302 12.3898 85.7802 12.1698 86.2202 11.7198C86.6602 11.2698 86.8902 10.6998 86.8902 9.99977C86.8902 9.29977 86.6702 8.72977 86.2202 8.27977C85.7802 7.82977 85.2302 7.60977 84.5902 7.60977C83.9502 7.60977 83.4002 7.82977 82.9602 8.27977C82.5202 8.72977 82.2902 9.29977 82.2902 9.99977C82.2902 10.6998 82.5102 11.2698 82.9602 11.7198ZM90.8197 6.9999V12.9899H93.1197C93.6097 12.9899 94.0397 12.8199 94.3997 12.4999C94.7597 12.1799 94.9397 11.7699 94.9397 11.2799C94.9397 10.9499 94.8397 10.6699 94.6497 10.4199C94.4597 10.1699 94.2197 9.9999 93.9197 9.8999V9.8699C94.1697 9.7599 94.3597 9.5999 94.5097 9.3799C94.6597 9.1699 94.7297 8.9199 94.7297 8.6299C94.7297 8.1599 94.5497 7.7699 94.2097 7.4599C93.8697 7.1599 93.4597 6.9999 92.9897 6.9999H90.8197ZM92.9897 9.5699H91.5897V7.7299H93.0197C93.2997 7.7299 93.5197 7.8299 93.6897 8.0199C93.8697 8.2099 93.9497 8.4199 93.9497 8.6499C93.9497 8.8799 93.8697 9.0899 93.6897 9.2799C93.5097 9.4699 93.2797 9.5699 92.9897 9.5699ZM93.1397 12.2599H91.5897H91.5797V10.2899H93.0997C93.4097 10.2899 93.6597 10.3999 93.8497 10.5999C94.0497 10.7999 94.1397 11.0199 94.1397 11.2699C94.1397 11.5199 94.0397 11.7399 93.8597 11.9499C93.6797 12.1599 93.4397 12.2599 93.1397 12.2599Z" fill="black"></path><path d="M67.1 22.2C64.75 22.2 62.83 23.99 62.83 26.45C62.83 28.9 64.75 30.7 67.1 30.7C69.45 30.7 71.37 28.9 71.37 26.45C71.37 23.99 69.45 22.2 67.1 22.2ZM67.1 29.03C65.81 29.03 64.7 27.97 64.7 26.45C64.7 24.92 65.81 23.87 67.1 23.87C68.39 23.87 69.5 24.92 69.5 26.45C69.5 27.97 68.38 29.03 67.1 29.03ZM57.78 22.2C55.43 22.2 53.51 23.99 53.51 26.45C53.51 28.9 55.43 30.7 57.78 30.7C60.13 30.7 62.05 28.9 62.05 26.45C62.05 23.99 60.13 22.2 57.78 22.2ZM57.78 29.03C56.49 29.03 55.38 27.97 55.38 26.45C55.38 24.92 56.49 23.87 57.78 23.87C59.07 23.87 60.18 24.92 60.18 26.45C60.18 27.97 59.07 29.03 57.78 29.03ZM46.7 23.51V25.31H51.02C50.89 26.32 50.55 27.07 50.04 27.58C49.41 28.21 48.43 28.9 46.71 28.9C44.05 28.9 41.97 26.76 41.97 24.1C41.97 21.44 44.05 19.3 46.71 19.3C48.14 19.3 49.19 19.86 49.96 20.59L51.23 19.32C50.15 18.29 48.72 17.5 46.7 17.5C43.06 17.5 40 20.46 40 24.11C40 27.75 43.06 30.72 46.7 30.72C48.67 30.72 50.15 30.08 51.31 28.87C52.5 27.68 52.87 26 52.87 24.65C52.87 24.23 52.84 23.84 52.77 23.52H46.7V23.51ZM92.01 24.91C91.66 23.96 90.58 22.2 88.37 22.2C86.18 22.2 84.36 23.92 84.36 26.45C84.36 28.83 86.16 30.7 88.58 30.7C90.53 30.7 91.66 29.51 92.12 28.82L90.67 27.85C90.19 28.56 89.53 29.03 88.58 29.03C87.63 29.03 86.95 28.59 86.52 27.74L92.21 25.39L92.01 24.91ZM86.21 26.33C86.16 24.69 87.48 23.85 88.43 23.85C89.17 23.85 89.8 24.22 90.01 24.75L86.21 26.33ZM81.59 30.45H83.46V17.95H81.59V30.45ZM78.53 23.15H78.46C78.04 22.65 77.24 22.2 76.22 22.2C74.09 22.2 72.14 24.07 72.14 26.47C72.14 28.85 74.09 30.71 76.22 30.71C77.23 30.71 78.04 30.26 78.46 29.74H78.52V30.35C78.52 31.98 77.65 32.85 76.25 32.85C75.11 32.85 74.4 32.03 74.11 31.34L72.48 32.02C72.95 33.15 74.19 34.53 76.25 34.53C78.44 34.53 80.29 33.24 80.29 30.1V22.46H78.52V23.15H78.53ZM76.38 29.03C75.09 29.03 74.01 27.95 74.01 26.47C74.01 24.97 75.09 23.88 76.38 23.88C77.65 23.88 78.65 24.98 78.65 26.47C78.66 27.95 77.66 29.03 76.38 29.03ZM100.77 17.95H96.3V30.45H98.17V25.71H100.78C102.85 25.71 104.88 24.21 104.88 21.83C104.88 19.45 102.83 17.95 100.77 17.95ZM100.81 23.97H98.16V19.68H100.81C102.21 19.68 103 20.84 103 21.82C103 22.8 102.21 23.97 100.81 23.97ZM112.35 22.18C111 22.18 109.6 22.78 109.02 24.09L110.68 24.78C111.03 24.09 111.69 23.86 112.38 23.86C113.34 23.86 114.33 24.44 114.34 25.47V25.6C114 25.41 113.28 25.12 112.39 25.12C110.6 25.12 108.79 26.1 108.79 27.93C108.79 29.6 110.25 30.68 111.89 30.68C113.14 30.68 113.84 30.12 114.27 29.46H114.33V30.43H116.13V25.64C116.14 23.42 114.48 22.18 112.35 22.18ZM112.12 29.03C111.51 29.03 110.66 28.72 110.66 27.97C110.66 27.01 111.72 26.64 112.64 26.64C113.46 26.64 113.85 26.82 114.34 27.06C114.2 28.21 113.2 29.03 112.12 29.03ZM122.7 22.45L120.56 27.87H120.5L118.28 22.45H116.27L119.6 30.03L117.7 34.24H119.65L124.78 22.45H122.7ZM105.9 30.45H107.77V17.95H105.9V30.45Z" fill="black"></path><path d="M10.44 7.53999C10.15 7.84999 9.98 8.32999 9.98 8.93999V31.06C9.98 31.68 10.15 32.16 10.44 32.46L10.51 32.53L22.9 20.15V20V19.85L10.51 7.46999L10.44 7.53999Z" fill="url(#uicons-1bvkgvbrck)"></path><path d="M10.44 7.53999C10.15 7.84999 9.98 8.32999 9.98 8.93999V31.06C9.98 31.68 10.15 32.16 10.44 32.46L10.51 32.53L22.9 20.15V20V19.85L10.51 7.46999L10.44 7.53999Z" fill="#2196F3"></path><path d="M27.03 24.28L22.9 20.15V20V19.85L27.03 15.72L27.12 15.77L32.01 18.55C33.41 19.34 33.41 20.64 32.01 21.44L27.12 24.22L27.03 24.28Z" fill="url(#uicons-5i2b6i19k0)"></path><path d="M27.03 24.28L22.9 20.15V20V19.85L27.03 15.72L27.12 15.77L32.01 18.55C33.41 19.34 33.41 20.64 32.01 21.44L27.12 24.22L27.03 24.28Z" fill="#FFC107"></path><path d="M27.12 24.22L22.9 20L10.44 32.46C10.9 32.95 11.66 33.01 12.52 32.52L27.12 24.22Z" fill="url(#uicons-t91eutjcea)"></path><path d="M27.12 24.22L22.9 20L10.44 32.46C10.9 32.95 11.66 33.01 12.52 32.52L27.12 24.22Z" fill="#F44336"></path><path d="M27.12 15.78L12.51 7.47999C11.65 6.98999 10.89 7.04999 10.43 7.53999L22.9 20L27.12 15.78Z" fill="url(#uicons-z4sgsijrko)"></path><path d="M27.12 15.78L12.51 7.47999C11.65 6.98999 10.89 7.04999 10.43 7.53999L22.9 20L27.12 15.78Z" fill="#4CAF50"></path><path opacity="0.2" d="M27.03 24.13L12.51 32.38C11.7 32.84 10.97 32.81 10.51 32.39L10.44 32.46L10.51 32.53C10.98 32.95 11.7 32.98 12.51 32.52L27.12 24.22L27.03 24.13Z" fill="black"></path><path opacity="0.12" d="M10.44 32.32C10.15 32.01 9.98 31.53 9.98 30.92V31.07C9.98 31.69 10.15 32.17 10.44 32.47L10.51 32.4L10.44 32.32Z" fill="black"></path><path opacity="0.12" d="M32.01 21.3L27.02 24.13L27.11 24.22L32 21.44C32.7 21.04 33.05 20.52 33.05 20C33 20.47 32.65 20.94 32.01 21.3Z" fill="black"></path><path opacity="0.25" d="M12.51 7.61999L32.01 18.7C32.64 19.06 33 19.52 33.06 20C33.06 19.48 32.71 18.95 32.01 18.56L12.51 7.47999C11.11 6.68999 9.97 7.34999 9.97 8.94999V9.09999C9.97 7.48999 11.12 6.82999 12.51 7.61999Z" fill="white"></path><defs><linearGradient id="uicons-1bvkgvbrck" x1="21.7997" y1="8.70969" x2="5.0173" y2="25.4921" gradientUnits="userSpaceOnUse"><stop stop-color="#00A0FF"></stop><stop offset="0.00657445" stop-color="#00A1FF"></stop><stop offset="0.2601" stop-color="#00BEFF"></stop><stop offset="0.5122" stop-color="#00D2FF"></stop><stop offset="0.7604" stop-color="#00DFFF"></stop><stop offset="1" stop-color="#00E3FF"></stop></linearGradient><linearGradient id="uicons-5i2b6i19k0" x1="33.8344" y1="20.0014" x2="9.63751" y2="20.0014" gradientUnits="userSpaceOnUse"><stop stop-color="#FFE000"></stop><stop offset="0.4087" stop-color="#FFBD00"></stop><stop offset="0.7754" stop-color="#FFA500"></stop><stop offset="1" stop-color="#FF9C00"></stop></linearGradient><linearGradient id="uicons-t91eutjcea" x1="24.827" y1="22.2961" x2="2.0687" y2="45.0544" gradientUnits="userSpaceOnUse"><stop stop-color="#FF3A44"></stop><stop offset="1" stop-color="#C31162"></stop></linearGradient><linearGradient id="uicons-z4sgsijrko" x1="7.2973" y1="0.176187" x2="17.4599" y2="10.3387" gradientUnits="userSpaceOnUse"><stop stop-color="#32A071"></stop><stop offset="0.0685" stop-color="#2DA771"></stop><stop offset="0.4762" stop-color="#15CF74"></stop><stop offset="0.8009" stop-color="#06E775"></stop><stop offset="1" stop-color="#00F076"></stop></linearGradient></defs></svg>