<svg width="167" height="23" viewBox="0 0 167 23" fill="none" xmlns="http://www.w3.org/2000/svg">
<g id="Group 2">
<path id="Path 3" d="M11.4958 22.0305C8.35519 22.0305 5.74826 20.9847 3.67654 18.8945C1.60638 16.8028 0.571289 14.2081 0.571289 11.106C0.571289 8.00381 1.60638 5.40764 3.67654 3.31749C5.74826 1.22731 8.35519 0.181473 11.4958 0.181473C13.3768 0.181473 15.1163 0.61673 16.7174 1.48724C18.3184 2.35774 19.5796 3.54204 20.4993 5.04315L16.3575 7.44397C15.8976 6.62422 15.2378 5.98747 14.378 5.53838C13.5167 5.08774 12.5555 4.86319 11.4958 4.86319C9.63483 4.86319 8.14912 5.43378 7.03865 6.57347C5.92822 7.71312 5.37296 9.22499 5.37296 11.106C5.37296 12.987 5.92822 14.4973 7.03865 15.637C8.14912 16.7782 9.63483 17.3488 11.4958 17.3488C12.5555 17.3488 13.5213 17.1181 14.3918 16.6582C15.2624 16.1984 15.9175 15.5678 16.3575 14.7664L20.4993 17.1673C19.5996 18.6684 18.3492 19.8542 16.7481 20.7247C15.1471 21.5953 13.3968 22.0305 11.4958 22.0305Z" fill="black"/>
<path id="Path 4" d="M40.2182 18.8791C38.0958 20.9801 35.5165 22.0305 32.4743 22.0305C29.4336 22.0305 26.8513 20.9801 24.7304 18.8791C22.611 16.7782 21.5498 14.1866 21.5498 11.106C21.5498 8.02536 22.611 5.43378 24.7304 3.33289C26.8513 1.23196 29.4336 0.181473 32.4743 0.181473C35.5165 0.181473 38.0958 1.23196 40.2182 3.33289C42.3391 5.43378 43.3988 8.02536 43.3988 11.106C43.3988 14.1866 42.3391 16.7782 40.2182 18.8791ZM28.1079 15.6078C29.2783 16.769 30.7333 17.3488 32.4743 17.3488C34.2153 17.3488 35.6703 16.769 36.8407 15.6078C38.0111 14.4465 38.5971 12.947 38.5971 11.106C38.5971 9.26498 38.0111 7.76389 36.8407 6.60422C35.6703 5.44304 34.2153 4.86319 32.4743 4.86319C30.7333 4.86319 29.2783 5.44304 28.1079 6.60422C26.9374 7.76389 26.3515 9.26498 26.3515 11.106C26.3515 12.947 26.9374 14.4465 28.1079 15.6078Z" fill="black"/>
<path id="Path 5" d="M57.8058 0.601364H62.6075V21.6106H59.007L50.9032 10.2047V21.6106H46.1016V0.601364H49.7036L57.8058 12.0057V0.601364Z" fill="black"/>
<path id="Path 6" d="M73.2631 22.0305C71.1222 22.0305 69.335 21.5645 67.9062 20.634C66.4743 19.7035 65.4592 18.4392 64.8594 16.8382L69.0013 14.4373C69.8425 16.3783 71.3129 17.3488 73.4122 17.3488C75.3132 17.3488 76.2638 16.7782 76.2638 15.637C76.2638 15.0187 75.9592 14.5327 75.3486 14.182C74.738 13.8329 73.5922 13.4269 71.9111 12.967C71.0314 12.7271 70.2609 12.4564 69.6011 12.1565C68.9412 11.8565 68.2968 11.4613 67.6647 10.9706C67.0341 10.48 66.5558 9.86481 66.2251 9.12503C65.8945 8.38524 65.7299 7.53473 65.7299 6.57347C65.7299 4.63403 66.4251 3.08217 67.8154 1.92097C69.2058 0.761322 70.8622 0.181473 72.7832 0.181473C74.5027 0.181473 76.0238 0.585983 77.3434 1.3965C78.6646 2.20705 79.7058 3.38208 80.4656 4.92319L76.4145 7.2948C76.0346 6.49503 75.5624 5.88751 75.0041 5.47838C74.4427 5.06775 73.7014 4.86319 72.7832 4.86319C72.0618 4.86319 71.5082 5.01854 71.1175 5.32767C70.7269 5.63834 70.5316 6.01363 70.5316 6.45351C70.5316 6.97488 70.7761 7.42397 71.2667 7.80386C71.7573 8.1853 72.7725 8.60521 74.3135 9.06503C75.1533 9.32497 75.8039 9.53568 76.2638 9.69563C76.7236 9.85559 77.3096 10.1201 78.0202 10.4908C78.7292 10.8599 79.269 11.2505 79.6412 11.6612C80.0103 12.0703 80.341 12.6117 80.6301 13.2823C80.9208 13.9529 81.0654 14.7173 81.0654 15.577C81.0654 17.5795 80.3456 19.1544 78.9045 20.3049C77.4649 21.4553 75.5839 22.0305 73.2631 22.0305Z" fill="black"/>
<path id="Path 7" d="M97.2411 20.0803C95.7201 21.3799 93.7791 22.0305 91.4182 22.0305C89.0574 22.0305 87.1164 21.3799 85.5969 20.0803C84.0742 18.7791 83.3145 17.0289 83.3145 14.8265V0.601364H88.1161V14.4081C88.1161 16.3675 89.2173 17.3488 91.4182 17.3488C93.6176 17.3488 94.7188 16.3675 94.7188 14.4081V0.601364H99.5205V14.8265C99.5205 17.0289 98.7607 18.7791 97.2411 20.0803Z" fill="black"/>
<path id="Path 8" d="M111.376 0.601364C114.276 0.601364 116.704 1.60722 118.655 3.61741C120.605 5.62913 121.581 8.12534 121.581 11.106C121.581 14.0882 120.605 16.5829 118.655 18.5946C116.704 20.6048 114.276 21.6106 111.376 21.6106H102.974V0.601364H111.376ZM111.376 16.9874C113.037 16.9874 114.381 16.4537 115.413 15.3817C116.443 14.3128 116.959 12.887 116.959 11.106C116.959 9.32498 116.443 7.89925 115.413 6.8288C114.381 5.75834 113.037 5.22308 111.376 5.22308H107.775V16.9874H111.376Z" fill="black"/>
<path id="Path 9" d="M142.048 18.8791C139.927 20.9801 137.347 22.0305 134.306 22.0305C131.264 22.0305 128.681 20.9801 126.562 18.8791C124.441 16.7782 123.38 14.1866 123.38 11.106C123.38 8.02536 124.441 5.43378 126.562 3.33289C128.681 1.23196 131.264 0.181473 134.306 0.181473C137.347 0.181473 139.927 1.23196 142.048 3.33289C144.169 5.43378 145.23 8.02536 145.23 11.106C145.23 14.1866 144.169 16.7782 142.048 18.8791ZM129.94 15.6078C131.108 16.769 132.565 17.3488 134.306 17.3488C136.045 17.3488 137.502 16.769 138.671 15.6078C139.843 14.4465 140.427 12.947 140.427 11.106C140.427 9.26498 139.843 7.76389 138.671 6.60422C137.502 5.44304 136.045 4.86319 134.306 4.86319C132.565 4.86319 131.108 5.44304 129.94 6.60422C128.768 7.76389 128.183 9.26498 128.183 11.106C128.183 12.947 128.768 14.4465 129.94 15.6078Z" fill="black"/>
<path id="Path 10" d="M157.956 22.0305C154.814 22.0305 152.207 20.9847 150.139 18.8945C148.067 16.8028 147.03 14.2081 147.03 11.106C147.03 8.00381 148.067 5.40764 150.139 3.31749C152.207 1.22731 154.814 0.181473 157.956 0.181473C159.836 0.181473 161.577 0.61673 163.178 1.48724C164.779 2.35774 166.039 3.54204 166.96 5.04315L162.818 7.44397C162.358 6.62422 161.697 5.98747 160.837 5.53838C159.976 5.08774 159.016 4.86319 157.956 4.86319C156.095 4.86319 154.61 5.43378 153.499 6.57347C152.387 7.71312 151.834 9.22499 151.834 11.106C151.834 12.987 152.387 14.4973 153.499 15.637C154.61 16.7782 156.095 17.3488 157.956 17.3488C159.016 17.3488 159.982 17.1181 160.851 16.6582C161.723 16.1984 162.378 15.5678 162.818 14.7664L166.96 17.1673C166.059 18.6684 164.81 19.8542 163.209 20.7247C161.608 21.5953 159.856 22.0305 157.956 22.0305Z" fill="black"/>
</g>
</svg>
