<svg fill="currentColor" width="135" height="40" viewBox="0 0 135 40" xmlns="http://www.w3.org/2000/svg" class="text-mezo-10" data-v-f9d4c0fc=""><g><path fill-rule="evenodd" clip-rule="evenodd" d="M24.8715 7.29945C24.9809 8.72866 24.5289 10.1442 23.6115 11.2456C23.1722 11.792 22.6146 12.2316 21.9808 12.5312C21.347 12.8309 20.6534 12.9829 19.9523 12.9757C19.9076 12.2884 19.9988 11.599 20.2206 10.947C20.4425 10.2949 20.7907 9.69302 21.2453 9.17563C22.1751 8.11655 23.4698 7.44666 24.8715 7.29945ZM27.4284 17.7016C26.9626 18.5223 26.712 19.4475 26.6998 20.3911C26.701 21.4525 27.0145 22.49 27.6014 23.3744C28.1882 24.2588 29.0225 24.9509 30 25.3643C29.6157 26.6129 29.0363 27.7928 28.2834 28.8604C27.2723 30.3729 26.2122 31.8505 24.5296 31.8778C23.7294 31.8963 23.1892 31.6662 22.6263 31.4264C22.0392 31.1763 21.4274 30.9157 20.47 30.9157C19.4547 30.9157 18.8155 31.1847 18.199 31.4441C17.6662 31.6683 17.1504 31.8854 16.4235 31.9156C14.8211 31.9749 13.5965 30.3013 12.5486 28.803C10.4543 25.7432 8.82342 20.1799 11.0098 16.3946C11.5145 15.4876 12.2456 14.7268 13.1318 14.1864C14.0179 13.6459 15.029 13.3443 16.0664 13.3107C16.9752 13.292 17.8473 13.6423 18.6119 13.9494C19.1966 14.1843 19.7185 14.3939 20.1458 14.3939C20.5214 14.3939 21.0287 14.1926 21.6199 13.9579C22.5512 13.5883 23.6907 13.1361 24.8519 13.258C25.7418 13.2858 26.613 13.5208 27.3963 13.9442C28.1795 14.3676 28.8532 14.9679 29.3639 15.6972C28.56 16.1914 27.8942 16.881 27.4284 17.7016Z" fill="black"></path><path fill-rule="evenodd" clip-rule="evenodd" d="M80.252 29.0762C78.6172 29.0762 77.4209 28.2676 77.2832 27.0362L75.3809 27.0361C75.501 29.2822 77.3603 30.7031 80.1143 30.7031C83.0576 30.7031 84.9082 29.248 84.9082 26.9248C84.9082 25.1084 83.8496 24.0849 81.3018 23.4824L79.9336 23.1465C78.333 22.751 77.6787 22.2344 77.6787 21.3565C77.6787 20.2549 78.7031 19.4981 80.2002 19.4981C81.6973 19.4981 82.7217 20.2461 82.834 21.4854H84.71C84.6494 19.3428 82.8506 17.8711 80.2266 17.8711C77.5752 17.8711 75.708 19.3428 75.708 21.4854C75.708 23.2158 76.7666 24.2822 79.0469 24.833L80.6563 25.2207C82.2657 25.6162 82.9453 26.1934 82.9453 27.1572C82.9453 28.2676 81.8184 29.0762 80.252 29.0762ZM43.1416 27.1397H47.875L49.0107 30.4961H51.0498L46.5664 18.0781H44.4834L40 30.4961H42.0049L43.1416 27.1397ZM47.3838 25.5908H43.6318L45.4825 20.1436H45.5342L47.3838 25.5908ZM56.9541 30.5908C59.2266 30.5908 60.7325 28.7832 60.7325 25.9697C60.7325 23.164 59.2178 21.3476 56.92 21.3476C56.3396 21.3289 55.7651 21.4679 55.2575 21.7497C54.7498 22.0315 54.3281 22.4457 54.0371 22.9482H54.003V21.4423H52.2041V33.4912H54.0625V29.0068H54.1055C54.3837 29.5117 54.7984 29.928 55.3022 30.2082C55.806 30.4883 56.3785 30.6209 56.9541 30.5908ZM56.4297 22.9316C57.875 22.9316 58.8223 24.1367 58.8223 25.9697C58.8223 27.8193 57.875 29.0156 56.4297 29.0156C55.0098 29.0156 54.0547 27.7939 54.0547 25.9697C54.0547 24.1621 55.0098 22.9316 56.4297 22.9316ZM70.6973 25.9697C70.6973 28.7832 69.1914 30.5908 66.919 30.5908C66.3433 30.6209 65.7708 30.4883 65.267 30.2081C64.7632 29.928 64.3485 29.5117 64.0703 29.0068H64.0273V33.4912H62.1689V21.4423H63.9678V22.9482H64.0019C64.2929 22.4457 64.7146 22.0315 65.2223 21.7497C65.7299 21.4679 66.3044 21.3289 66.8848 21.3476C69.1826 21.3476 70.6973 23.164 70.6973 25.9697ZM68.7871 25.9697C68.7871 24.1367 67.8399 22.9316 66.3946 22.9316C64.9746 22.9316 64.0196 24.1621 64.0196 25.9697C64.0196 27.7939 64.9746 29.0156 66.3946 29.0156C67.8399 29.0156 68.7871 27.8193 68.7871 25.9697ZM88.9189 19.2998V21.4424H90.6406V22.9141H88.9189V27.9053C88.9189 28.6807 89.2637 29.042 90.0205 29.042C90.2249 29.0384 90.429 29.0241 90.6318 28.999V30.4619C90.2916 30.5255 89.9457 30.5543 89.5996 30.5478C87.7666 30.5478 87.0518 29.8593 87.0518 28.1035V22.9141H85.7354V21.4424H87.0517V19.2998H88.9189ZM95.9316 21.3311C93.3154 21.3311 91.6377 23.1211 91.6377 25.9697C91.6377 28.8262 93.2988 30.6084 95.9316 30.6084C98.5654 30.6084 100.227 28.8262 100.227 25.9697C100.227 23.1211 98.5566 21.3311 95.9316 21.3311ZM95.9316 22.8623C97.4375 22.8623 98.333 24.0156 98.333 25.9697H98.333C98.333 27.9316 97.4375 29.0762 95.9316 29.0762C94.4258 29.0762 93.5312 27.9316 93.5312 25.9697C93.5312 24.0244 94.4258 22.8623 95.9316 22.8623ZM101.759 21.4425H103.531V22.9835H103.574C103.694 22.5022 103.976 22.0769 104.373 21.779C104.769 21.4811 105.256 21.3288 105.752 21.3478C105.966 21.347 106.18 21.3703 106.389 21.4171V23.1554C106.118 23.0728 105.836 23.0348 105.554 23.0431C105.284 23.0321 105.015 23.0797 104.765 23.1826C104.515 23.2855 104.29 23.4412 104.106 23.6391C103.922 23.837 103.783 24.0724 103.699 24.3291C103.615 24.5857 103.587 24.8576 103.617 25.1261V30.4962H101.759L101.759 21.4425ZM111.059 30.6084C113.106 30.6084 114.707 29.4805 114.957 27.8369L113.192 27.8369C113.027 28.246 112.735 28.5909 112.358 28.8203C111.981 29.0498 111.541 29.1515 111.102 29.1103C110.767 29.1226 110.434 29.0637 110.124 28.9374C109.815 28.8111 109.535 28.6203 109.305 28.3778C109.075 28.1352 108.899 27.8464 108.788 27.5306C108.678 27.2148 108.637 26.8791 108.666 26.5459V26.4336H115.061V25.7969C115.061 23.0518 113.485 21.3311 110.98 21.3311C108.434 21.3311 106.79 23.1729 106.79 26.0127C106.79 28.8437 108.425 30.6084 111.059 30.6084ZM113.201 25.1348H108.675C108.674 24.8321 108.733 24.5323 108.849 24.2527C108.965 23.973 109.134 23.7191 109.349 23.5054C109.563 23.2918 109.818 23.1227 110.098 23.008C110.378 22.8933 110.678 22.8351 110.98 22.8369C111.28 22.8305 111.579 22.8861 111.856 23.0003C112.133 23.1145 112.384 23.2849 112.593 23.5006C112.801 23.7164 112.963 23.9729 113.068 24.2541C113.172 24.5354 113.218 24.8352 113.201 25.1348Z" fill="black"></path><path fill-rule="evenodd" clip-rule="evenodd" d="M43.1094 11.2534H42.3115V12.0635H43.1348C43.9658 12.0635 44.4414 12.4277 44.4414 13.0191C44.4414 13.6021 43.9365 14.0156 43.1631 14.0156C42.3897 14.0156 41.8652 13.6474 41.8115 13.0766H40.9219C40.9487 13.3415 41.0285 13.5983 41.1567 13.8317C41.2848 14.0651 41.4587 14.2703 41.6678 14.4351C41.8769 14.5998 42.1171 14.7208 42.374 14.7907C42.6309 14.8607 42.8993 14.8782 43.1631 14.8423C43.4263 14.875 43.6935 14.8548 43.9489 14.7829C44.2042 14.7111 44.4427 14.5889 44.6502 14.4237C44.8578 14.2585 45.0303 14.0535 45.1576 13.8208C45.2849 13.588 45.3644 13.3322 45.3916 13.0683C45.406 12.7013 45.2745 12.3434 45.0258 12.073C44.7771 11.8027 44.4315 11.6417 44.0645 11.6255V11.5551C44.374 11.486 44.6505 11.3129 44.8478 11.0645C45.0451 10.8161 45.1512 10.5076 45.1485 10.1904C45.1485 9.24362 44.3213 8.58591 43.1465 8.58591C42.8919 8.55282 42.6332 8.5725 42.3865 8.64372C42.1398 8.71494 41.9105 8.83618 41.7127 8.99988C41.5149 9.16359 41.3529 9.36625 41.2369 9.59527C41.1208 9.82428 41.0531 10.0747 41.0381 10.331H41.9141C41.9299 10.1898 41.9739 10.0533 42.0434 9.92935C42.113 9.80544 42.2066 9.69672 42.3189 9.6096C42.4311 9.52249 42.5597 9.45874 42.6969 9.42214C42.8342 9.38553 42.9774 9.3768 43.1182 9.39646C43.8203 9.39646 44.2344 9.75193 44.2344 10.3022C44.2284 10.4405 44.1938 10.576 44.1329 10.7003C44.0719 10.8246 43.9859 10.9348 43.8802 11.0242C43.7745 11.1136 43.6514 11.1801 43.5188 11.2195C43.3861 11.259 43.2467 11.2705 43.1094 11.2534ZM48.0771 12.0801C47.0068 12.1465 46.4023 12.6138 46.4023 13.4243C46.4031 13.6144 46.4437 13.8021 46.5214 13.9756C46.5992 14.149 46.7124 14.3042 46.8538 14.4311C46.9953 14.5581 47.1617 14.654 47.3425 14.7127C47.5232 14.7714 47.7143 14.7916 47.9033 14.7719C48.1712 14.7843 48.4375 14.7254 48.6751 14.6012C48.9127 14.477 49.1131 14.2919 49.2559 14.0649H49.3262V14.6977H50.1826V11.6211C50.1826 10.6699 49.5459 10.1079 48.417 10.1079C47.3955 10.1079 46.667 10.604 46.5762 11.3774H47.4365C47.5361 11.0591 47.8789 10.8769 48.375 10.8769C48.9834 10.8769 49.2969 11.1455 49.2969 11.6211V12.0098L48.0771 12.0801ZM49.2969 12.6631V13.0395C49.2873 13.1816 49.2492 13.3202 49.1848 13.4473C49.1205 13.5743 49.0313 13.6871 48.9226 13.7789C48.8138 13.8708 48.6876 13.9398 48.5516 13.9819C48.4156 14.024 48.2725 14.0383 48.1309 14.0239C47.6474 14.0239 47.2959 13.7881 47.2959 13.3828C47.2959 12.9858 47.5771 12.7749 48.1972 12.7334L49.2969 12.6631ZM52.541 10.9429V14.6978H51.6523V10.1948H54.6172V10.9428L52.541 10.9429ZM58.1416 14.7719C59.2783 14.7719 60.002 13.875 60.002 12.4443C60.002 11.0131 59.2783 10.1201 58.1328 10.1201C57.8445 10.113 57.5599 10.1857 57.3104 10.3302C57.0608 10.4747 56.8561 10.6854 56.7188 10.939H56.6523V10.1948H55.7969V16.1948H56.6855V14.0156H56.7559C56.8908 14.2606 57.0929 14.4619 57.3384 14.5959C57.5839 14.7299 57.8626 14.791 58.1416 14.7719ZM57.8848 10.9184C58.6377 10.9184 59.0879 11.4931 59.0879 12.4443C59.0879 13.3994 58.6377 13.9741 57.8809 13.9741C57.1367 13.9741 56.669 13.3867 56.669 12.4482C56.669 11.5053 57.1368 10.9184 57.8848 10.9184ZM61.1856 16.3106V15.5454C61.2817 15.5576 61.3786 15.5632 61.4756 15.562C61.6649 15.576 61.8528 15.5196 62.0031 15.4037C62.1534 15.2877 62.2556 15.1203 62.29 14.9336L62.3564 14.7144L60.7266 10.1948H61.6943L62.8233 13.7715H62.8936L64.0186 10.1948H64.961L63.2823 14.8838C62.8975 15.9795 62.4717 16.3311 61.5538 16.3311C61.4795 16.3311 61.2686 16.3228 61.1856 16.3106ZM66.5391 13.42H65.6543C65.7363 14.3297 66.5352 14.7804 67.5186 14.7804C68.6309 14.7804 69.3594 14.214 69.3594 13.358C69.3622 13.1106 69.274 12.8707 69.1116 12.6839C68.9492 12.4972 68.724 12.3765 68.4785 12.3449V12.2746C68.6847 12.2255 68.8678 12.1073 68.9972 11.9395C69.1266 11.7717 69.1945 11.5645 69.1895 11.3527C69.1895 10.5919 68.5771 10.108 67.5068 10.108C67.0973 10.0516 66.6819 10.1581 66.3501 10.4048C66.0182 10.6514 65.7965 11.0184 65.7324 11.4269H66.5888C66.6465 11.0714 67.0098 10.8605 67.5068 10.8605C68.0527 10.8605 68.3174 11.1129 68.3174 11.4435C68.3174 11.8199 68.0439 12.0265 67.5068 12.0265H66.8447V12.7169H67.5186C68.1475 12.7169 68.4736 12.9239 68.4736 13.358C68.4736 13.7633 68.1104 14.024 67.5186 14.024C66.9981 14.024 66.626 13.817 66.5391 13.42ZM70.6387 14.6978V10.1948H71.5195V13.292H71.5898L73.665 10.1948H74.5459V14.6978H73.665V11.584H73.5986L71.5195 14.6978L70.6387 14.6978ZM77.9805 10.9428H79.3985V10.1948H75.6729V10.9428H77.0909V14.6977H77.9805V10.9428ZM84.1852 13.482C84.0641 13.8935 83.8023 14.2494 83.4455 14.4875C83.0887 14.7257 82.6596 14.8308 82.2331 14.7847C81.9364 14.7926 81.6416 14.7358 81.3691 14.6182C81.0966 14.5007 80.8529 14.3253 80.655 14.1041C80.4571 13.883 80.3097 13.6214 80.223 13.3376C80.1363 13.0538 80.1124 12.7545 80.153 12.4605C80.1135 12.1656 80.1378 11.8657 80.2243 11.581C80.3108 11.2964 80.4574 11.0336 80.6543 10.8105C80.8512 10.5874 81.0936 10.4093 81.3654 10.2881C81.6371 10.1669 81.9317 10.1054 82.2292 10.108C83.4821 10.108 84.2389 10.964 84.2389 12.378V12.6881H81.0592V12.7379C81.0452 12.9032 81.0658 13.0696 81.1199 13.2264C81.174 13.3832 81.2602 13.527 81.3732 13.6485C81.4861 13.77 81.6232 13.8665 81.7757 13.9318C81.9282 13.9972 82.0926 14.0299 82.2585 14.0279C82.4709 14.0533 82.6861 14.0149 82.8767 13.9177C83.0672 13.8205 83.2246 13.6689 83.3288 13.482L84.1852 13.482ZM81.0592 12.0308H83.3327C83.3439 11.8798 83.3234 11.7281 83.2725 11.5854C83.2216 11.4427 83.1415 11.3123 83.0372 11.2024C82.9329 11.0926 82.8068 11.0058 82.667 10.9475C82.5271 10.8893 82.3767 10.861 82.2252 10.8643C82.0715 10.8623 81.9189 10.891 81.7765 10.9489C81.634 11.0068 81.5046 11.0926 81.3959 11.2014C81.2872 11.3101 81.2014 11.4396 81.1436 11.582C81.0858 11.7245 81.0571 11.8771 81.0592 12.0308ZM89.9834 10.1948H87.9531V14.6977H90.0039C90.9922 14.6977 91.583 14.185 91.583 13.3994C91.5862 13.1359 91.488 12.8813 91.3088 12.6881C91.1296 12.4949 90.8831 12.3779 90.6201 12.3613V12.291C90.8367 12.2436 91.0304 12.1233 91.1689 11.9501C91.3074 11.777 91.3822 11.5615 91.3809 11.3398C91.3809 10.6411 90.8643 10.1948 89.9834 10.1948ZM88.834 12.043V10.877L89.8135 10.8769C90.2852 10.8769 90.5088 11.1045 90.5088 11.4556C90.5088 11.8364 90.252 12.043 89.7149 12.043H88.834ZM88.834 14.0156V12.6963L89.7764 12.6963C90.376 12.6963 90.6944 12.9072 90.6944 13.3579C90.6944 13.7837 90.4131 14.0156 89.8877 14.0156H88.834Z" fill="black"></path></g><defs><clipPath id="clip0_1_53"><path d="M0 10.36C0 7.22979 0 5.66468 0.491565 4.42313C1.20309 2.62602 2.62602 1.20309 4.42313 0.491565C5.66468 0 7.22979 0 10.36 0H124.64C127.77 0 129.335 0 130.577 0.491565C132.374 1.20309 133.797 2.62602 134.508 4.42313C135 5.66468 135 7.22979 135 10.36V29.64C135 32.7702 135 34.3353 134.508 35.5769C133.797 37.374 132.374 38.7969 130.577 39.5084C129.335 40 127.77 40 124.64 40H10.36C7.22979 40 5.66468 40 4.42313 39.5084C2.62602 38.7969 1.20309 37.374 0.491565 35.5769C0 34.3353 0 32.7702 0 29.64V10.36Z" fill="white"></path></clipPath></defs></svg>