<?xml version="1.0" encoding="UTF-8"?>
<!DOCTYPE svg PUBLIC "-//W3C//DTD SVG 1.1//EN" "http://www.w3.org/Graphics/SVG/1.1/DTD/svg11.dtd">
<svg xmlns="http://www.w3.org/2000/svg" version="1.1" width="3099px" height="474px" style="shape-rendering:geometricPrecision; text-rendering:geometricPrecision; image-rendering:optimizeQuality; fill-rule:evenodd; clip-rule:evenodd" xmlns:xlink="http://www.w3.org/1999/xlink">
<g><path style="opacity:0.996" fill="#262b4c" d="M -0.5,-0.5 C 15.1667,-0.5 30.8333,-0.5 46.5,-0.5C 164.674,0.0274797 283.007,1.02748 401.5,2.5C 353.918,80.667 306.084,158.667 258,236.5C 235.119,195.908 212.619,155.074 190.5,114C 207.843,113.833 225.176,113.333 242.5,112.5C 249.5,100.5 256.5,88.5 263.5,76.5C 260.553,75.6786 257.553,75.1786 254.5,75C 211.477,74.6282 168.477,74.2949 125.5,74C 147.833,114.333 170.167,154.667 192.5,195C 164.491,195.49 136.491,195.824 108.5,196C 103.09,194.257 99.2563,190.757 97,185.5C 64.7257,123.947 32.2257,62.6135 -0.5,1.5C -0.5,0.833333 -0.5,0.166667 -0.5,-0.5 Z"/></g>
<g><path style="opacity:0.994" fill="#ec3136" d="M 439.5,1.5 C 469.507,1.16683 499.507,1.50016 529.5,2.5C 514.833,28.5 500.167,54.5 485.5,80.5C 455.826,81.4851 426.16,81.1518 396.5,79.5C 410.89,53.466 425.223,27.466 439.5,1.5 Z"/></g>
<g><path style="opacity:0.994" fill="#262b4c" d="M 2464.5,96.5 C 2484.17,96.5 2503.83,96.5 2523.5,96.5C 2523.5,110.833 2523.5,125.167 2523.5,139.5C 2503.83,139.5 2484.17,139.5 2464.5,139.5C 2464.5,125.167 2464.5,110.833 2464.5,96.5 Z"/></g>
<g><path style="opacity:0.995" fill="#262b4c" d="M 692.5,102.5 C 776.405,98.4018 819.739,138.402 822.5,222.5C 823.013,254.125 813.846,282.458 795,307.5C 784.822,319.001 772.655,327.668 758.5,333.5C 756.008,347.362 761.341,356.529 774.5,361C 788.255,363.799 801.588,362.466 814.5,357C 816.81,356.503 819.143,356.337 821.5,356.5C 821.824,370.745 821.49,384.912 820.5,399C 795.874,404.302 771.207,404.635 746.5,400C 726.636,395 713.469,382.833 707,363.5C 704.852,356.424 703.352,349.257 702.5,342C 640.337,336.504 605.837,302.671 599,240.5C 595.086,208.308 600.753,177.975 616,149.5C 634.36,122.236 659.86,106.569 692.5,102.5 Z M 702.5,146.5 C 728.437,144.881 745.937,156.215 755,180.5C 763.666,208.511 763.666,236.511 755,264.5C 739.864,297.434 716.03,305.934 683.5,290C 667.403,274.74 659.236,255.906 659,233.5C 657.395,213.875 660.062,194.875 667,176.5C 673.726,160.251 685.559,150.251 702.5,146.5 Z"/></g>
<g><path style="opacity:0.998" fill="#ec3136" d="M 1201.5,106.5 C 1243.5,106.5 1285.5,106.5 1327.5,106.5C 1327.5,120.167 1327.5,133.833 1327.5,147.5C 1316.5,147.5 1305.5,147.5 1294.5,147.5C 1294.5,197.167 1294.5,246.833 1294.5,296.5C 1305.5,296.5 1316.5,296.5 1327.5,296.5C 1327.5,310.167 1327.5,323.833 1327.5,337.5C 1285.5,337.5 1243.5,337.5 1201.5,337.5C 1201.5,323.833 1201.5,310.167 1201.5,296.5C 1212.83,296.5 1224.17,296.5 1235.5,296.5C 1235.5,246.833 1235.5,197.167 1235.5,147.5C 1224.17,147.5 1212.83,147.5 1201.5,147.5C 1201.5,133.833 1201.5,120.167 1201.5,106.5 Z"/></g>
<g><path style="opacity:0.991" fill="#262b4c" d="M 2338.5,113.5 C 2356.83,113.5 2375.17,113.5 2393.5,113.5C 2393.5,130.167 2393.5,146.833 2393.5,163.5C 2410.83,163.5 2428.17,163.5 2445.5,163.5C 2445.5,176.5 2445.5,189.5 2445.5,202.5C 2428.17,202.5 2410.83,202.5 2393.5,202.5C 2393.33,229.169 2393.5,255.835 2394,282.5C 2395.93,296.431 2403.93,303.098 2418,302.5C 2427.29,301.386 2436.45,299.719 2445.5,297.5C 2446.14,310.914 2445.47,324.081 2443.5,337C 2418.81,342.878 2394.14,342.878 2369.5,337C 2350.43,329.41 2340.27,315.244 2339,294.5C 2338.5,263.835 2338.33,233.168 2338.5,202.5C 2331.5,202.5 2324.5,202.5 2317.5,202.5C 2317.5,189.5 2317.5,176.5 2317.5,163.5C 2324.5,163.5 2331.5,163.5 2338.5,163.5C 2338.5,146.833 2338.5,130.167 2338.5,113.5 Z"/></g>
<g><path style="opacity:0.995" fill="#ec3136" d="M 379.5,118.5 C 407.167,118.5 434.833,118.5 462.5,118.5C 399.053,231.387 334.553,343.721 269,455.5C 265.329,461.326 261.496,466.993 257.5,472.5C 242.011,447.532 227.011,422.199 212.5,396.5C 268.178,303.806 323.845,211.139 379.5,118.5 Z"/></g>
<g><path style="opacity:0.995" fill="#262b4c" d="M 896.5,158.5 C 910.504,158.333 924.504,158.5 938.5,159C 958.154,159.987 975.321,166.821 990,179.5C 996.439,187.382 1000.44,196.382 1002,206.5C 1002.5,250.165 1002.67,293.832 1002.5,337.5C 984.167,337.5 965.833,337.5 947.5,337.5C 947.666,331.824 947.499,326.157 947,320.5C 924.868,342.332 899.035,348.165 869.5,338C 849.243,327.167 839.243,310.167 839.5,287C 839.048,261.891 850.382,244.558 873.5,235C 879.681,232.538 886.014,230.538 892.5,229C 911.158,226.169 929.825,223.669 948.5,221.5C 947.904,211.409 942.904,204.575 933.5,201C 908.559,194.71 884.559,197.376 861.5,209C 859.19,209.497 856.857,209.663 854.5,209.5C 854.167,195.151 854.501,180.818 855.5,166.5C 869.149,163.062 882.816,160.395 896.5,158.5 Z M 941.5,256.5 C 943.5,256.5 945.5,256.5 947.5,256.5C 947.667,268.505 947.5,280.505 947,292.5C 932.194,305.692 916.36,307.359 899.5,297.5C 895.219,289.935 894.386,281.935 897,273.5C 900.368,267.797 905.201,263.963 911.5,262C 921.514,259.506 931.514,257.673 941.5,256.5 Z"/></g>
<g><path style="opacity:0.998" fill="#262b4c" d="M 1462.5,158.5 C 1495.27,156.128 1515.43,170.794 1523,202.5C 1524.04,209.125 1524.71,215.792 1525,222.5C 1525.5,260.832 1525.67,299.165 1525.5,337.5C 1506.83,337.5 1488.17,337.5 1469.5,337.5C 1469.95,299.139 1469.45,260.806 1468,222.5C 1465.29,209.964 1457.45,203.964 1444.5,204.5C 1434.34,205.163 1425.17,208.497 1417,214.5C 1416.5,255.499 1416.33,296.499 1416.5,337.5C 1398.17,337.5 1379.83,337.5 1361.5,337.5C 1361.5,279.5 1361.5,221.5 1361.5,163.5C 1379.83,163.5 1398.17,163.5 1416.5,163.5C 1416.33,169.509 1416.5,175.509 1417,181.5C 1430.01,169.412 1445.18,161.746 1462.5,158.5 Z"/></g>
<g><path style="opacity:0.995" fill="#262b4c" d="M 1827.5,158.5 C 1901.88,154.043 1937.38,189.043 1934,263.5C 1928.79,311.377 1902.29,337.877 1854.5,343C 1829.34,345.627 1806.34,339.96 1785.5,326C 1767.32,310.803 1757.15,291.303 1755,267.5C 1751.47,241.7 1755.8,217.367 1768,194.5C 1782.49,173.671 1802.32,161.671 1827.5,158.5 Z M 1835.5,198.5 C 1853.07,195.201 1865.57,201.534 1873,217.5C 1880.33,239.845 1880.33,262.178 1873,284.5C 1864.81,300.174 1851.98,306.007 1834.5,302C 1824.69,298.859 1818.19,292.359 1815,282.5C 1809.42,262.597 1809.08,242.597 1814,222.5C 1817.22,210.79 1824.38,202.79 1835.5,198.5 Z"/></g>
<g><path style="opacity:0.995" fill="#262b4c" d="M 2189.5,158.5 C 2203.5,158.333 2217.5,158.5 2231.5,159C 2246.87,160.09 2261.2,164.423 2274.5,172C 2288.37,182.237 2295.54,196.07 2296,213.5C 2296.5,254.832 2296.67,296.165 2296.5,337.5C 2278.17,337.5 2259.83,337.5 2241.5,337.5C 2241.67,331.824 2241.5,326.157 2241,320.5C 2219.5,341.442 2194.33,347.609 2165.5,339C 2143.83,328.8 2132.83,311.634 2132.5,287.5C 2132.37,260.143 2145.21,242.143 2171,233.5C 2177.62,230.85 2184.45,229.017 2191.5,228C 2208.11,225.573 2224.77,223.739 2241.5,222.5C 2241.56,210.103 2235.56,202.603 2223.5,200C 2199.5,195.054 2176.5,198.054 2154.5,209C 2152.19,209.497 2149.86,209.663 2147.5,209.5C 2147.5,195.167 2147.5,180.833 2147.5,166.5C 2161.5,163.169 2175.5,160.503 2189.5,158.5 Z M 2234.5,256.5 C 2236.83,256.5 2239.17,256.5 2241.5,256.5C 2241.67,268.171 2241.5,279.838 2241,291.5C 2228.45,303.814 2213.95,306.98 2197.5,301C 2192.56,298.303 2189.73,294.136 2189,288.5C 2186.81,276.386 2191.31,267.886 2202.5,263C 2213.07,259.689 2223.74,257.522 2234.5,256.5 Z"/></g>
<g><path style="opacity:0.995" fill="#262b4c" d="M 2623.5,158.5 C 2647.05,155.647 2669.38,159.48 2690.5,170C 2713.37,184.889 2726.21,206.056 2729,233.5C 2732.31,257.995 2728.64,281.328 2718,303.5C 2705.73,323.749 2687.89,336.249 2664.5,341C 2637.13,346.591 2611.13,342.924 2586.5,330C 2567.88,317.272 2556.38,299.772 2552,277.5C 2547.96,255.586 2548.96,233.919 2555,212.5C 2567.12,180.882 2589.95,162.882 2623.5,158.5 Z M 2630.5,198.5 C 2654.57,195.721 2668.4,206.388 2672,230.5C 2674.46,247.309 2673.79,263.976 2670,280.5C 2663.11,299.032 2649.94,306.199 2630.5,302C 2622.21,299.373 2616.04,294.206 2612,286.5C 2603.78,263.634 2603.45,240.634 2611,217.5C 2614.77,208.225 2621.27,201.891 2630.5,198.5 Z"/></g>
<g><path style="opacity:0.994" fill="#262b4c" d="M 3098.5,273.5 C 3098.5,279.5 3098.5,285.5 3098.5,291.5C 3092.09,316.077 3076.42,331.577 3051.5,338C 3016.19,346.542 2982.03,343.375 2949,328.5C 2948.5,313.17 2948.33,297.837 2948.5,282.5C 2950.86,282.337 2953.19,282.503 2955.5,283C 2976.86,300.425 3001.2,307.091 3028.5,303C 3034.72,302.093 3039.22,298.927 3042,293.5C 3043.44,288.229 3041.94,284.062 3037.5,281C 3034.33,279.275 3030.99,277.942 3027.5,277C 3012.61,274.222 2997.94,270.555 2983.5,266C 2956,254.509 2945.17,234.009 2951,204.5C 2956.15,187.345 2966.98,175.178 2983.5,168C 3017.91,155.235 3052.24,155.569 3086.5,169C 3088.08,169.707 3089.58,170.54 3091,171.5C 3091.5,186.496 3091.67,201.496 3091.5,216.5C 3089.47,216.662 3087.47,216.495 3085.5,216C 3066.66,201.053 3045.33,195.053 3021.5,198C 3016.54,199.232 3012.04,201.398 3008,204.5C 3003.83,213.311 3006.33,219.478 3015.5,223C 3029.37,226.841 3043.37,230.175 3057.5,233C 3071.68,236.542 3083.18,244.042 3092,255.5C 3095.09,261.294 3097.26,267.294 3098.5,273.5 Z"/></g>
<g><path style="opacity:0.997" fill="#262b4c" d="M 1665.5,158.5 C 1702.36,156.532 1722.86,173.866 1727,210.5C 1727.5,252.832 1727.67,295.165 1727.5,337.5C 1709.17,337.5 1690.83,337.5 1672.5,337.5C 1672.94,299.81 1672.44,262.143 1671,224.5C 1669.17,210.836 1661.33,204.169 1647.5,204.5C 1637.34,205.163 1628.17,208.497 1620,214.5C 1619.5,255.499 1619.33,296.499 1619.5,337.5C 1600.83,337.5 1582.17,337.5 1563.5,337.5C 1563.5,279.5 1563.5,221.5 1563.5,163.5C 1582.17,163.5 1600.83,163.5 1619.5,163.5C 1619.33,169.509 1619.5,175.509 1620,181.5C 1633.01,169.41 1648.18,161.744 1665.5,158.5 Z"/></g>
<g><path style="opacity:0.995" fill="#262b4c" d="M 2859.5,158.5 C 2898.03,157.861 2918.53,176.861 2921,215.5C 2921.5,256.165 2921.67,296.832 2921.5,337.5C 2903.17,337.5 2884.83,337.5 2866.5,337.5C 2866.67,305.832 2866.5,274.165 2866,242.5C 2866.36,232.443 2864.69,222.776 2861,213.5C 2856.02,207.015 2849.35,204.015 2841,204.5C 2830.76,204.968 2821.59,208.302 2813.5,214.5C 2812.5,255.495 2812.17,296.495 2812.5,337.5C 2794.17,337.5 2775.83,337.5 2757.5,337.5C 2757.5,279.5 2757.5,221.5 2757.5,163.5C 2775.83,163.5 2794.17,163.5 2812.5,163.5C 2812.33,169.509 2812.5,175.509 2813,181.5C 2826.25,169.123 2841.75,161.457 2859.5,158.5 Z"/></g>
<g><path style="opacity:0.994" fill="#262b4c" d="M 1032.5,163.5 C 1081.5,163.5 1130.5,163.5 1179.5,163.5C 1179.67,175.838 1179.5,188.171 1179,200.5C 1151.48,231.72 1124.31,263.22 1097.5,295C 1125.5,295.5 1153.5,295.667 1181.5,295.5C 1181.5,309.5 1181.5,323.5 1181.5,337.5C 1130.5,337.5 1079.5,337.5 1028.5,337.5C 1028.33,325.162 1028.5,312.829 1029,300.5C 1055.98,268.686 1083.15,237.019 1110.5,205.5C 1084.51,204.5 1058.51,204.167 1032.5,204.5C 1032.5,190.833 1032.5,177.167 1032.5,163.5 Z"/></g>
<g><path style="opacity:0.995" fill="#262b4c" d="M 1941.5,163.5 C 1960.84,163.167 1980.18,163.5 1999.5,164.5C 2010.88,201.693 2022.71,238.693 2035,275.5C 2046.49,238.546 2057.82,201.546 2069,164.5C 2087.76,163.507 2106.59,163.174 2125.5,163.5C 2105.5,221.321 2085,278.988 2064,336.5C 2053.91,337.161 2043.74,337.494 2033.5,337.5C 2023.26,337.494 2013.09,337.161 2003,336.5C 1982.39,278.848 1961.89,221.181 1941.5,163.5 Z"/></g>
<g><path style="opacity:0.994" fill="#262b4c" d="M 2466.5,163.5 C 2484.83,163.5 2503.17,163.5 2521.5,163.5C 2521.5,221.5 2521.5,279.5 2521.5,337.5C 2503.17,337.5 2484.83,337.5 2466.5,337.5C 2466.5,279.5 2466.5,221.5 2466.5,163.5 Z"/></g>
<g><path style="opacity:0.994" fill="#262b4c" d="M 126.5,234.5 C 155.848,234.222 185.181,234.722 214.5,236C 221.793,248.753 228.96,261.586 236,274.5C 221.414,300.979 205.747,326.979 189,352.5C 167.452,313.907 146.286,275.073 125.5,236C 126.056,235.617 126.389,235.117 126.5,234.5 Z"/></g>
</svg>
