<svg width="244" height="50" viewBox="0 0 244 50" fill="none" xmlns="http://www.w3.org/2000/svg">
<path d="M45.0346 32.925C44.1964 32.9434 43.6504 32.6297 43.3074 31.8637C42.9844 31.1378 42.5968 30.4411 42.1831 29.6259C42.0432 29.9705 41.957 30.1719 41.8801 30.3765C41.0404 32.6143 40.2037 34.8521 39.3609 37.0899C39.0563 37.8989 38.5734 38.2742 37.9228 38.2265C37.2553 38.1773 36.837 37.7482 36.6617 36.9007C35.8234 32.8481 34.9898 28.7923 34.1516 24.7397C33.9348 23.6877 33.7133 22.6357 33.4933 21.5852C33.3426 21.859 33.2826 22.1174 33.235 22.3773C31.9538 29.4137 30.6757 36.4486 29.393 43.4835C29.2254 44.3955 28.827 44.8277 28.1364 44.8815C27.4797 44.9323 27.0075 44.5708 26.6907 43.7542C26.0278 42.0423 25.3696 40.3274 24.7097 38.6141C23.6301 35.8088 22.5503 33.005 21.4092 30.0397C21.2584 30.4196 21.1754 30.6211 21.1 30.8241C20.3126 32.9157 19.5159 35.0044 18.7438 37.1022C18.5177 37.7128 18.1763 38.1619 17.4934 38.2219C16.8351 38.2788 16.4306 37.8943 16.1076 37.3698C15.2833 36.0302 14.4389 34.7045 13.6176 33.3633C13.4284 33.0526 13.2285 32.8989 12.8363 32.9035C12.3856 32.9096 11.935 32.9096 11.4844 32.9112L28.4733 49.7878C28.6163 49.9293 28.8009 50 28.9885 50C29.1777 50 29.3638 49.9293 29.5068 49.7878L46.4772 32.9265C45.9958 32.9296 45.5144 32.9142 45.0346 32.925Z" fill="#D40408"/>
<path d="M42.7537 0.123749C36.6232 0.123749 31.3354 3.78423 28.9515 9.03039C26.5692 3.78423 21.28 0.123749 15.1525 0.123749C6.79494 0.123749 0 6.92178 0 15.2763C0 17.0388 0.301437 18.7291 0.85817 20.3056C1.49184 22.0989 2.45311 23.7369 3.67122 25.1488C4.18954 25.7532 4.75395 26.3146 5.36302 26.8298L8.79279 30.2381C10.4215 30.2565 12.0488 30.2703 13.676 30.2427C14.4788 30.2288 15.0141 30.5164 15.4124 31.2085C15.92 32.0944 16.4921 32.945 17.0935 33.9016C17.2273 33.5556 17.3134 33.3295 17.3995 33.1034C18.2701 30.784 19.139 28.4632 20.0126 26.1439C20.3341 25.2857 20.7524 24.915 21.403 24.9396C22.1581 24.9688 22.5057 25.4595 22.7549 26.1131C24.2375 29.9997 25.7402 33.8785 27.2367 37.7605C27.3228 37.985 27.4212 38.205 27.5751 38.5741C27.6627 38.145 27.7165 37.9081 27.7611 37.6682C29.1792 29.8705 30.5942 22.0727 32.0137 14.275C32.1691 13.423 32.6397 12.9708 33.3488 12.9631C34.0501 12.9569 34.5253 13.3999 34.7022 14.2566C35.5419 18.3092 36.3771 22.3634 37.2138 26.4176C37.5875 28.2279 37.9612 30.0397 38.3765 32.056C38.5349 31.6746 38.621 31.4869 38.6933 31.2932C39.35 29.5536 40.0129 27.8172 40.6512 26.0716C40.885 25.4333 41.2464 24.9734 41.9647 24.9442C42.6553 24.9181 43.0444 25.3426 43.3273 25.9224C43.9595 27.2159 44.6193 28.494 45.2437 29.7905C45.4083 30.1335 45.6021 30.2734 45.9974 30.2642C47.057 30.2411 48.1183 30.255 49.1795 30.2427L53.4752 25.9732L53.4736 25.9701C55.0271 24.4136 56.2451 22.5234 57.008 20.4148C57.5878 18.8091 57.9046 17.0788 57.9046 15.2763C57.9046 6.92178 51.1066 0.123749 42.7537 0.123749Z" fill="#D40408"/>
<path d="M76.4958 28.0305C73.3552 28.0305 70.7483 26.9847 68.6765 24.8945C66.6064 22.8028 65.5713 20.2081 65.5713 17.106C65.5713 14.0038 66.6064 11.4076 68.6765 9.31749C70.7483 7.22731 73.3552 6.18147 76.4958 6.18147C78.3768 6.18147 80.1163 6.61673 81.7174 7.48724C83.3184 8.35774 84.5796 9.54204 85.4993 11.0432L81.3575 13.444C80.8976 12.6242 80.2378 11.9875 79.378 11.5384C78.5167 11.0877 77.5555 10.8632 76.4958 10.8632C74.6348 10.8632 73.1491 11.4338 72.0387 12.5735C70.9282 13.7131 70.373 15.225 70.373 17.106C70.373 18.987 70.9282 20.4973 72.0387 21.637C73.1491 22.7782 74.6348 23.3488 76.4958 23.3488C77.5555 23.3488 78.5213 23.1181 79.3918 22.6582C80.2624 22.1984 80.9175 21.5678 81.3575 20.7664L85.4993 23.1673C84.5996 24.6684 83.3492 25.8542 81.7481 26.7247C80.1471 27.5953 78.3968 28.0305 76.4958 28.0305Z" fill="black"/>
<path d="M105.218 24.8791C103.096 26.9801 100.517 28.0305 97.4743 28.0305C94.4336 28.0305 91.8513 26.9801 89.7304 24.8791C87.611 22.7782 86.5498 20.1866 86.5498 17.106C86.5498 14.0254 87.611 11.4338 89.7304 9.33289C91.8513 7.23196 94.4336 6.18147 97.4743 6.18147C100.517 6.18147 103.096 7.23196 105.218 9.33289C107.339 11.4338 108.399 14.0254 108.399 17.106C108.399 20.1866 107.339 22.7782 105.218 24.8791ZM93.1079 21.6078C94.2783 22.769 95.7333 23.3488 97.4743 23.3488C99.2153 23.3488 100.67 22.769 101.841 21.6078C103.011 20.4465 103.597 18.947 103.597 17.106C103.597 15.265 103.011 13.7639 101.841 12.6042C100.67 11.443 99.2153 10.8632 97.4743 10.8632C95.7333 10.8632 94.2783 11.443 93.1079 12.6042C91.9374 13.7639 91.3515 15.265 91.3515 17.106C91.3515 18.947 91.9374 20.4465 93.1079 21.6078Z" fill="black"/>
<path d="M122.805 6.60136H127.607V27.6106H124.007L115.903 16.2047V27.6106H111.101V6.60136H114.703L122.805 18.0057V6.60136Z" fill="black"/>
<path d="M138.262 28.0305C136.121 28.0305 134.334 27.5645 132.905 26.634C131.473 25.7035 130.458 24.4392 129.858 22.8382L134 20.4373C134.842 22.3783 136.312 23.3488 138.411 23.3488C140.312 23.3488 141.263 22.7782 141.263 21.637C141.263 21.0187 140.958 20.5327 140.348 20.182C139.737 19.8329 138.591 19.4269 136.91 18.967C136.03 18.7271 135.26 18.4564 134.6 18.1565C133.94 17.8565 133.296 17.4613 132.664 16.9706C132.033 16.48 131.555 15.8648 131.224 15.125C130.893 14.3852 130.729 13.5347 130.729 12.5735C130.729 10.634 131.424 9.08217 132.814 7.92097C134.205 6.76132 135.861 6.18147 137.782 6.18147C139.502 6.18147 141.023 6.58598 142.342 7.3965C143.664 8.20705 144.705 9.38208 145.465 10.9232L141.413 13.2948C141.034 12.495 140.561 11.8875 140.003 11.4784C139.442 11.0677 138.7 10.8632 137.782 10.8632C137.061 10.8632 136.507 11.0185 136.117 11.3277C135.726 11.6383 135.531 12.0136 135.531 12.4535C135.531 12.9749 135.775 13.424 136.266 13.8039C136.756 14.1853 137.771 14.6052 139.313 15.065C140.152 15.325 140.803 15.5357 141.263 15.6956C141.723 15.8556 142.309 16.1201 143.019 16.4908C143.728 16.8599 144.268 17.2505 144.64 17.6612C145.009 18.0703 145.34 18.6117 145.629 19.2823C145.92 19.9529 146.064 20.7173 146.064 21.577C146.064 23.5795 145.345 25.1544 143.904 26.3049C142.464 27.4553 140.583 28.0305 138.262 28.0305Z" fill="black"/>
<path d="M162.242 26.0803C160.721 27.3799 158.78 28.0305 156.419 28.0305C154.058 28.0305 152.117 27.3799 150.597 26.0803C149.075 24.7791 148.315 23.0289 148.315 20.8265V6.60136H153.117V20.4081C153.117 22.3675 154.218 23.3488 156.419 23.3488C158.618 23.3488 159.719 22.3675 159.719 20.4081V6.60136H164.521V20.8265C164.521 23.0289 163.761 24.7791 162.242 26.0803Z" fill="black"/>
<path d="M176.376 6.60136C179.276 6.60136 181.704 7.60722 183.655 9.61741C185.605 11.6291 186.581 14.1253 186.581 17.106C186.581 20.0882 185.605 22.5829 183.655 24.5946C181.704 26.6048 179.276 27.6106 176.376 27.6106H167.974V6.60136H176.376ZM176.376 22.9874C178.037 22.9874 179.381 22.4537 180.413 21.3817C181.443 20.3128 181.959 18.887 181.959 17.106C181.959 15.325 181.443 13.8993 180.413 12.8288C179.381 11.7583 178.037 11.2231 176.376 11.2231H172.775V22.9874H176.376Z" fill="black"/>
<path d="M207.048 24.8791C204.927 26.9801 202.347 28.0305 199.306 28.0305C196.264 28.0305 193.681 26.9801 191.562 24.8791C189.441 22.7782 188.38 20.1866 188.38 17.106C188.38 14.0254 189.441 11.4338 191.562 9.33289C193.681 7.23196 196.264 6.18147 199.306 6.18147C202.347 6.18147 204.927 7.23196 207.048 9.33289C209.169 11.4338 210.23 14.0254 210.23 17.106C210.23 20.1866 209.169 22.7782 207.048 24.8791ZM194.94 21.6078C196.108 22.769 197.565 23.3488 199.306 23.3488C201.045 23.3488 202.502 22.769 203.671 21.6078C204.843 20.4465 205.427 18.947 205.427 17.106C205.427 15.265 204.843 13.7639 203.671 12.6042C202.502 11.443 201.045 10.8632 199.306 10.8632C197.565 10.8632 196.108 11.443 194.94 12.6042C193.768 13.7639 193.183 15.265 193.183 17.106C193.183 18.947 193.768 20.4465 194.94 21.6078Z" fill="black"/>
<path d="M222.956 28.0305C219.814 28.0305 217.207 26.9847 215.139 24.8945C213.067 22.8028 212.03 20.2081 212.03 17.106C212.03 14.0038 213.067 11.4076 215.139 9.31749C217.207 7.22731 219.814 6.18147 222.956 6.18147C224.836 6.18147 226.577 6.61673 228.178 7.48724C229.779 8.35774 231.039 9.54204 231.96 11.0432L227.818 13.444C227.358 12.6242 226.697 11.9875 225.837 11.5384C224.976 11.0877 224.016 10.8632 222.956 10.8632C221.095 10.8632 219.61 11.4338 218.499 12.5735C217.387 13.7131 216.834 15.225 216.834 17.106C216.834 18.987 217.387 20.4973 218.499 21.637C219.61 22.7782 221.095 23.3488 222.956 23.3488C224.016 23.3488 224.982 23.1181 225.851 22.6582C226.723 22.1984 227.378 21.5678 227.818 20.7664L231.96 23.1673C231.059 24.6684 229.81 25.8542 228.209 26.7247C226.608 27.5953 224.856 28.0305 222.956 28.0305Z" fill="black"/>
<path d="M67.1506 45V36.8182H68.4077V40.3764H69.2386L72.179 36.8182H73.7983L70.4957 40.7599L73.8409 45H72.2216L69.5369 41.5483H68.4077V45H67.1506ZM78.1942 45.1705C77.4555 45.1705 76.8074 44.9947 76.2499 44.6431C75.6959 44.2915 75.2627 43.7997 74.9502 43.1676C74.6412 42.5355 74.4868 41.7969 74.4868 40.9517C74.4868 40.0994 74.6412 39.3555 74.9502 38.7198C75.2627 38.0842 75.6959 37.5906 76.2499 37.239C76.8074 36.8874 77.4555 36.7116 78.1942 36.7116C78.9328 36.7116 79.5791 36.8874 80.1331 37.239C80.6906 37.5906 81.1238 38.0842 81.4328 38.7198C81.7453 39.3555 81.9015 40.0994 81.9015 40.9517C81.9015 41.7969 81.7453 42.5355 81.4328 43.1676C81.1238 43.7997 80.6906 44.2915 80.1331 44.6431C79.5791 44.9947 78.9328 45.1705 78.1942 45.1705ZM78.1942 44.0412C78.7552 44.0412 79.2169 43.8974 79.5791 43.6097C79.9413 43.3221 80.2094 42.9439 80.3834 42.4751C80.5574 42.0064 80.6444 41.4986 80.6444 40.9517C80.6444 40.4048 80.5574 39.8952 80.3834 39.4229C80.2094 38.9506 79.9413 38.5689 79.5791 38.2777C79.2169 37.9865 78.7552 37.8409 78.1942 37.8409C77.6331 37.8409 77.1714 37.9865 76.8092 38.2777C76.447 38.5689 76.1789 38.9506 76.0049 39.4229C75.8309 39.8952 75.7439 40.4048 75.7439 40.9517C75.7439 41.4986 75.8309 42.0064 76.0049 42.4751C76.1789 42.9439 76.447 43.3221 76.8092 43.6097C77.1714 43.8974 77.6331 44.0412 78.1942 44.0412ZM89.2963 40.3338V41.5057H84.7793V40.3338H89.2963ZM85.0776 36.8182V45H83.8205V36.8182H85.0776ZM90.2551 36.8182V45H88.998V36.8182H90.2551ZM95.8748 45.1705C95.1078 45.1705 94.4473 44.9893 93.8933 44.6271C93.3393 44.2649 92.9132 43.766 92.6149 43.1303C92.3166 42.4947 92.1674 41.7685 92.1674 40.9517C92.1674 40.1207 92.3201 39.3874 92.6255 38.7518C92.9345 38.1126 93.3642 37.6136 93.9146 37.255C94.4686 36.8928 95.1149 36.7116 95.8535 36.7116C96.4288 36.7116 96.9473 36.8182 97.4089 37.0312C97.8706 37.2443 98.2488 37.5426 98.5435 37.9261C98.8382 38.3097 99.0211 38.7571 99.0922 39.2685H97.835C97.7392 38.8956 97.5261 38.5653 97.1958 38.2777C96.8691 37.9865 96.4288 37.8409 95.8748 37.8409C95.3848 37.8409 94.9551 37.9687 94.5858 38.2244C94.22 38.4766 93.9341 38.8335 93.7282 39.2951C93.5257 39.7532 93.4245 40.2912 93.4245 40.9091C93.4245 41.5412 93.524 42.0916 93.7228 42.5604C93.9252 43.0291 94.2093 43.3931 94.5751 43.6523C94.9444 43.9116 95.3777 44.0412 95.8748 44.0412C96.2015 44.0412 96.498 43.9844 96.7644 43.8707C97.0307 43.7571 97.2562 43.5938 97.4409 43.3807C97.6255 43.1676 97.7569 42.9119 97.835 42.6136H99.0922C99.0211 43.0966 98.8453 43.5316 98.5648 43.9187C98.2878 44.3022 97.9203 44.6076 97.4622 44.8349C97.0076 45.0586 96.4785 45.1705 95.8748 45.1705ZM101.74 48.0682C101.526 48.0682 101.336 48.0504 101.17 48.0149C101.003 47.983 100.887 47.951 100.823 47.919L101.143 46.8111C101.448 46.8892 101.718 46.9176 101.953 46.8963C102.187 46.875 102.395 46.7702 102.576 46.582C102.76 46.3974 102.929 46.0973 103.082 45.6818L103.316 45.0426L100.291 36.8182H101.654L103.913 43.3381H103.998L106.257 36.8182H107.62L104.147 46.1932C103.991 46.6158 103.797 46.9656 103.567 47.2425C103.336 47.5231 103.068 47.7308 102.762 47.8658C102.46 48.0007 102.119 48.0682 101.74 48.0682ZM107.867 45V43.8281H108.165C108.41 43.8281 108.614 43.7802 108.777 43.6843C108.941 43.5849 109.072 43.4126 109.172 43.1676C109.275 42.919 109.353 42.5746 109.406 42.1342C109.463 41.6903 109.504 41.1257 109.528 40.4403L109.678 36.8182H115.132V45H113.875V37.9901H110.871L110.743 40.9091C110.715 41.5803 110.654 42.1715 110.562 42.6829C110.473 43.1907 110.336 43.6168 110.152 43.9613C109.971 44.3058 109.729 44.565 109.427 44.739C109.125 44.913 108.747 45 108.293 45H107.867ZM118.525 39.7798H120.869C121.828 39.7798 122.561 40.0231 123.069 40.5096C123.577 40.9961 123.831 41.6122 123.831 42.358C123.831 42.848 123.717 43.2937 123.49 43.695C123.263 44.0927 122.929 44.4105 122.488 44.6484C122.048 44.8828 121.508 45 120.869 45H117.439V36.8182H118.696V43.8281H120.869C121.366 43.8281 121.775 43.6967 122.094 43.4339C122.414 43.1712 122.574 42.8338 122.574 42.4219C122.574 41.9886 122.414 41.6353 122.094 41.3619C121.775 41.0884 121.366 40.9517 120.869 40.9517H118.525V39.7798ZM124.426 37.9901V36.8182H131.074V37.9901H128.389V45H127.132V37.9901H124.426ZM134.89 45.1918C134.372 45.1918 133.901 45.0941 133.479 44.8988C133.056 44.6999 132.721 44.4141 132.472 44.0412C132.223 43.6648 132.099 43.2102 132.099 42.6776C132.099 42.2088 132.191 41.8288 132.376 41.5376C132.561 41.2429 132.808 41.0121 133.116 40.8452C133.425 40.6783 133.766 40.554 134.139 40.4723C134.516 40.3871 134.894 40.3196 135.274 40.2699C135.771 40.206 136.174 40.158 136.483 40.1261C136.795 40.0906 137.023 40.032 137.165 39.9503C137.31 39.8686 137.383 39.7266 137.383 39.5241V39.4815C137.383 38.956 137.239 38.5476 136.952 38.2564C136.668 37.9652 136.236 37.8196 135.657 37.8196C135.057 37.8196 134.587 37.951 134.246 38.2138C133.905 38.4766 133.665 38.7571 133.527 39.0554L132.333 38.6293C132.547 38.1321 132.831 37.745 133.186 37.468C133.544 37.1875 133.935 36.9922 134.358 36.8821C134.784 36.7685 135.203 36.7116 135.615 36.7116C135.877 36.7116 136.179 36.7436 136.52 36.8075C136.865 36.8679 137.197 36.994 137.516 37.1857C137.839 37.3775 138.108 37.6669 138.321 38.054C138.534 38.4411 138.64 38.9595 138.64 39.6094V45H137.383V43.892H137.319C137.234 44.0696 137.092 44.2596 136.893 44.462C136.694 44.6644 136.43 44.8366 136.099 44.9787C135.769 45.1207 135.366 45.1918 134.89 45.1918ZM135.082 44.0625C135.579 44.0625 135.998 43.9648 136.339 43.7695C136.684 43.5742 136.943 43.3221 137.117 43.0131C137.294 42.7042 137.383 42.3793 137.383 42.0384V40.8878C137.33 40.9517 137.213 41.0103 137.032 41.0636C136.854 41.1133 136.648 41.1577 136.414 41.1967C136.183 41.2322 135.957 41.2642 135.737 41.2926C135.521 41.3175 135.345 41.3388 135.21 41.3565C134.883 41.3991 134.578 41.4684 134.294 41.5643C134.013 41.6566 133.786 41.7969 133.612 41.9851C133.441 42.1697 133.356 42.4219 133.356 42.7415C133.356 43.1783 133.518 43.5085 133.841 43.7322C134.168 43.9524 134.581 44.0625 135.082 44.0625ZM147.369 36.8182V43.8281H148.52V47.642H147.263V45H140.935V36.8182H142.192V43.8281H146.112V36.8182H147.369ZM151.713 43.1463L155.655 36.8182H157.104V45H155.847V38.6719L151.926 45H150.456V36.8182H151.713V43.1463ZM164.328 45V37.9688H162.155C161.665 37.9688 161.28 38.0824 160.999 38.3097C160.719 38.5369 160.578 38.8494 160.578 39.2472C160.578 39.6378 160.704 39.945 160.956 40.1687C161.212 40.3924 161.562 40.5043 162.006 40.5043H164.648V41.6761H162.006C161.452 41.6761 160.974 41.5785 160.573 41.3832C160.172 41.1879 159.863 40.9091 159.646 40.5469C159.43 40.1811 159.321 39.7479 159.321 39.2472C159.321 38.7429 159.435 38.3097 159.662 37.9474C159.889 37.5852 160.214 37.3065 160.637 37.1112C161.063 36.9158 161.569 36.8182 162.155 36.8182H165.521V45H164.328ZM158.874 45L161.196 40.9304H162.56L160.237 45H158.874ZM172.858 48.0682C172.645 48.0682 172.455 48.0504 172.288 48.0149C172.121 47.983 172.005 47.951 171.941 47.919L172.261 46.8111C172.566 46.8892 172.836 46.9176 173.071 46.8963C173.305 46.875 173.513 46.7702 173.694 46.582C173.879 46.3974 174.047 46.0973 174.2 45.6818L174.434 45.0426L171.409 36.8182H172.772L175.031 43.3381H175.116L177.375 36.8182H178.738L175.265 46.1932C175.109 46.6158 174.916 46.9656 174.685 47.2425C174.454 47.5231 174.186 47.7308 173.88 47.8658C173.579 48.0007 173.238 48.0682 172.858 48.0682ZM183.743 47.3438V43.8281H184.425C184.592 43.6541 184.735 43.4659 184.856 43.2635C184.977 43.0611 185.082 42.8214 185.17 42.5444C185.263 42.2638 185.341 41.9229 185.405 41.5217C185.469 41.1168 185.525 40.6286 185.575 40.0568L185.852 36.8182H191.051V43.8281H192.308V47.3438H191.051V45H185V47.3438H183.743ZM185.852 43.8281H189.794V37.9901H187.024L186.811 40.0568C186.722 40.9126 186.612 41.6602 186.481 42.2994C186.349 42.9386 186.14 43.4482 185.852 43.8281ZM197.301 45.1705C196.562 45.1705 195.914 44.9947 195.356 44.6431C194.802 44.2915 194.369 43.7997 194.057 43.1676C193.748 42.5355 193.593 41.7969 193.593 40.9517C193.593 40.0994 193.748 39.3555 194.057 38.7198C194.369 38.0842 194.802 37.5906 195.356 37.239C195.914 36.8874 196.562 36.7116 197.301 36.7116C198.039 36.7116 198.686 36.8874 199.24 37.239C199.797 37.5906 200.23 38.0842 200.539 38.7198C200.852 39.3555 201.008 40.0994 201.008 40.9517C201.008 41.7969 200.852 42.5355 200.539 43.1676C200.23 43.7997 199.797 44.2915 199.24 44.6431C198.686 44.9947 198.039 45.1705 197.301 45.1705ZM197.301 44.0412C197.862 44.0412 198.323 43.8974 198.686 43.6097C199.048 43.3221 199.316 42.9439 199.49 42.4751C199.664 42.0064 199.751 41.4986 199.751 40.9517C199.751 40.4048 199.664 39.8952 199.49 39.4229C199.316 38.9506 199.048 38.5689 198.686 38.2777C198.323 37.9865 197.862 37.8409 197.301 37.8409C196.74 37.8409 196.278 37.9865 195.916 38.2777C195.553 38.5689 195.285 38.9506 195.111 39.4229C194.937 39.8952 194.85 40.4048 194.85 40.9517C194.85 41.4986 194.937 42.0064 195.111 42.4751C195.285 42.9439 195.553 43.3221 195.916 43.6097C196.278 43.8974 196.74 44.0412 197.301 44.0412ZM202.927 45V36.8182H204.184V40.3764H205.015L207.955 36.8182H209.575L206.272 40.7599L209.617 45H207.998L205.313 41.5483H204.184V45H202.927ZM210.515 37.9901V36.8182H217.163V37.9901H214.478V45H213.221V37.9901H210.515ZM221.895 45.1705C221.157 45.1705 220.509 44.9947 219.951 44.6431C219.397 44.2915 218.964 43.7997 218.651 43.1676C218.342 42.5355 218.188 41.7969 218.188 40.9517C218.188 40.0994 218.342 39.3555 218.651 38.7198C218.964 38.0842 219.397 37.5906 219.951 37.239C220.509 36.8874 221.157 36.7116 221.895 36.7116C222.634 36.7116 223.28 36.8874 223.834 37.239C224.392 37.5906 224.825 38.0842 225.134 38.7198C225.446 39.3555 225.603 40.0994 225.603 40.9517C225.603 41.7969 225.446 42.5355 225.134 43.1676C224.825 43.7997 224.392 44.2915 223.834 44.6431C223.28 44.9947 222.634 45.1705 221.895 45.1705ZM221.895 44.0412C222.456 44.0412 222.918 43.8974 223.28 43.6097C223.642 43.3221 223.911 42.9439 224.085 42.4751C224.259 42.0064 224.346 41.4986 224.346 40.9517C224.346 40.4048 224.259 39.8952 224.085 39.4229C223.911 38.9506 223.642 38.5689 223.28 38.2777C222.918 37.9865 222.456 37.8409 221.895 37.8409C221.334 37.8409 220.873 37.9865 220.51 38.2777C220.148 38.5689 219.88 38.9506 219.706 39.4229C219.532 39.8952 219.445 40.4048 219.445 40.9517C219.445 41.4986 219.532 42.0064 219.706 42.4751C219.88 42.9439 220.148 43.3221 220.51 43.6097C220.873 43.8974 221.334 44.0412 221.895 44.0412ZM227.522 48.0682V36.8182H228.736V38.1179H228.885C228.978 37.9759 229.105 37.7947 229.269 37.5746C229.436 37.3509 229.674 37.152 229.983 36.978C230.295 36.8004 230.718 36.7116 231.25 36.7116C231.939 36.7116 232.547 36.8839 233.072 37.2283C233.598 37.5728 234.008 38.0611 234.303 38.6932C234.597 39.3253 234.745 40.071 234.745 40.9304C234.745 41.7969 234.597 42.5479 234.303 43.1836C234.008 43.8157 233.599 44.3058 233.077 44.6538C232.555 44.9982 231.953 45.1705 231.272 45.1705C230.746 45.1705 230.325 45.0835 230.009 44.9094C229.693 44.7319 229.45 44.5312 229.279 44.3075C229.109 44.0803 228.978 43.892 228.885 43.7429H228.779V48.0682H227.522ZM228.757 40.9091C228.757 41.527 228.848 42.0721 229.029 42.5444C229.21 43.0131 229.475 43.3807 229.823 43.647C230.171 43.9098 230.597 44.0412 231.101 44.0412C231.627 44.0412 232.065 43.9027 232.417 43.6257C232.772 43.3452 233.038 42.9687 233.216 42.4964C233.397 42.0206 233.488 41.4915 233.488 40.9091C233.488 40.3338 233.399 39.8153 233.221 39.3537C233.047 38.8885 232.783 38.521 232.428 38.2511C232.076 37.9776 231.634 37.8409 231.101 37.8409C230.59 37.8409 230.16 37.9705 229.812 38.2298C229.464 38.4854 229.201 38.8441 229.024 39.3058C228.846 39.7638 228.757 40.2983 228.757 40.9091ZM239.07 45.1918C238.551 45.1918 238.081 45.0941 237.658 44.8988C237.236 44.6999 236.9 44.4141 236.652 44.0412C236.403 43.6648 236.279 43.2102 236.279 42.6776C236.279 42.2088 236.371 41.8288 236.556 41.5376C236.74 41.2429 236.987 41.0121 237.296 40.8452C237.605 40.6783 237.946 40.554 238.319 40.4723C238.695 40.3871 239.074 40.3196 239.453 40.2699C239.951 40.206 240.354 40.158 240.663 40.1261C240.975 40.0906 241.202 40.032 241.344 39.9503C241.49 39.8686 241.563 39.7266 241.563 39.5241V39.4815C241.563 38.956 241.419 38.5476 241.131 38.2564C240.847 37.9652 240.416 37.8196 239.837 37.8196C239.237 37.8196 238.766 37.951 238.425 38.2138C238.085 38.4766 237.845 38.7571 237.706 39.0554L236.513 38.6293C236.726 38.1321 237.01 37.745 237.365 37.468C237.724 37.1875 238.115 36.9922 238.537 36.8821C238.963 36.7685 239.382 36.7116 239.794 36.7116C240.057 36.7116 240.359 36.7436 240.7 36.8075C241.044 36.8679 241.376 36.994 241.696 37.1857C242.019 37.3775 242.287 37.6669 242.5 38.054C242.713 38.4411 242.82 38.9595 242.82 39.6094V45H241.563V43.892H241.499C241.414 44.0696 241.272 44.2596 241.073 44.462C240.874 44.6644 240.609 44.8366 240.279 44.9787C239.949 45.1207 239.546 45.1918 239.07 45.1918ZM239.262 44.0625C239.759 44.0625 240.178 43.9648 240.519 43.7695C240.863 43.5742 241.123 43.3221 241.297 43.0131C241.474 42.7042 241.563 42.3793 241.563 42.0384V40.8878C241.51 40.9517 241.392 41.0103 241.211 41.0636C241.034 41.1133 240.828 41.1577 240.593 41.1967C240.363 41.2322 240.137 41.2642 239.917 41.2926C239.7 41.3175 239.525 41.3388 239.39 41.3565C239.063 41.3991 238.757 41.4684 238.473 41.5643C238.193 41.6566 237.966 41.7969 237.792 41.9851C237.621 42.1697 237.536 42.4219 237.536 42.7415C237.536 43.1783 237.697 43.5085 238.021 43.7322C238.347 43.9524 238.761 44.0625 239.262 44.0625Z" fill="black"/>
</svg>
