<svg xmlns="http://www.w3.org/2000/svg" width="207" height="44.196" viewBox="0 0 207 44.196" >
<defs>
<style>.a{fill:#c5c1c1;}.b,.c{fill:#d3d2d2;}.c{font-size:13px;font-family:Gilroy-SemiBold, Gilroy;font-weight:600;}</style>
</defs>
<g transform="translate(-135.585 -92.03)">
<g transform="translate(135.585 92.03)">
<path class="a" d="M172.781,116.032a1.463,1.463,0,0,1-1.53-.94c-.286-.643-.63-1.261-1-1.983-.124.305-.2.484-.268.665q-1.116,2.974-2.232,5.949c-.27.717-.7,1.049-1.274,1.007-.591-.044-.962-.424-1.118-1.175q-1.114-5.387-2.224-10.776-.288-1.4-.583-2.8a2.2,2.2,0,0,0-.229.7q-1.7,9.353-3.4,18.7c-.149.808-.5,1.191-1.113,1.239-.582.045-1-.275-1.281-1q-.881-2.275-1.755-4.555l-2.925-7.6c-.134.337-.207.515-.274.7-.7,1.853-1.4,3.7-2.088,5.563a1.225,1.225,0,0,1-2.336.237c-.73-1.187-1.479-2.362-2.206-3.55a.71.71,0,0,0-.692-.407c-.4.005-.8.005-1.2.007l15.054,14.954a.652.652,0,0,0,.916,0l15.038-14.941C173.633,116.036,173.206,116.023,172.781,116.032Z" transform="translate(-132.876 -86.967)"/><path class="a" d="M173.469,92.03a13.444,13.444,0,0,0-12.23,7.892,13.423,13.423,0,1,0-22.4,14.283,13.228,13.228,0,0,0,1.5,1.49l3.039,3.02c1.443.016,2.885.029,4.327,0a1.569,1.569,0,0,1,1.539.856c.45.785.957,1.539,1.49,2.386.119-.307.195-.507.271-.707q1.157-3.083,2.316-6.167c.285-.76.656-1.089,1.232-1.067.669.026.977.461,1.2,1.04q1.971,5.166,3.971,10.321c.076.2.163.394.3.721.078-.38.125-.59.165-.8q1.885-10.364,3.768-20.729c.138-.755.555-1.156,1.183-1.163s1.043.387,1.2,1.146q1.116,5.387,2.226,10.776c.331,1.6.662,3.21,1.03,5,.14-.338.217-.5.281-.676.582-1.541,1.169-3.08,1.735-4.627a1.222,1.222,0,0,1,2.371-.132c.56,1.146,1.145,2.279,1.7,3.428a.626.626,0,0,0,.668.42c.939-.02,1.879-.008,2.82-.019l3.806-3.783v0a13.418,13.418,0,0,0-9.5-22.9Z" transform="translate(-135.585 -92.03)"/></g>
<g transform="translate(193.688 95.601)">
<path class="b" d="M193.286,119.881a9.681,9.681,0,1,1,0-19.361,9.529,9.529,0,0,1,4.627,1.157,8.748,8.748,0,0,1,3.351,3.151l-3.67,2.127a4.186,4.186,0,0,0-1.754-1.689,5.425,5.425,0,0,0-2.554-.6,5.262,5.262,0,0,0-3.949,1.515,6.2,6.2,0,0,0,0,8.031,5.258,5.258,0,0,0,3.949,1.517,5.409,5.409,0,0,0,2.566-.612,4.125,4.125,0,0,0,1.742-1.676l3.67,2.127a8.553,8.553,0,0,1-3.324,3.152A9.584,9.584,0,0,1,193.286,119.881Z" transform="translate(-183.606 -100.52)"/><path class="b" d="M213.788,117.088a9.826,9.826,0,1,1,2.818-6.888A9.386,9.386,0,0,1,213.788,117.088Zm-10.731-2.9a5.623,5.623,0,0,0,7.738,0,5.89,5.89,0,0,0,0-7.978,5.623,5.623,0,0,0-7.738,0,5.89,5.89,0,0,0,0,7.978Z" transform="translate(-178.657 -100.52)"/><path class="b" d="M223.58,100.793h4.255v18.616h-3.19L217.464,109.3v10.107h-4.255V100.793H216.4L223.58,110.9Z" transform="translate(-172.865 -100.421)"/><path class="b" d="M232.852,119.881a8.53,8.53,0,0,1-4.747-1.237,6.726,6.726,0,0,1-2.7-3.363l3.67-2.127a3.951,3.951,0,0,0,3.909,2.58q2.527,0,2.527-1.517a1.431,1.431,0,0,0-.811-1.289,14.886,14.886,0,0,0-3.046-1.077,13.657,13.657,0,0,1-2.047-.718,8.623,8.623,0,0,1-1.716-1.051,4.217,4.217,0,0,1-1.276-1.635,5.492,5.492,0,0,1-.439-2.261,5.1,5.1,0,0,1,1.848-4.123,6.653,6.653,0,0,1,4.4-1.541,7.565,7.565,0,0,1,4.041,1.077,7.389,7.389,0,0,1,2.767,3.125l-3.59,2.1a4.152,4.152,0,0,0-1.25-1.61,3.259,3.259,0,0,0-1.968-.545,2.326,2.326,0,0,0-1.476.412,1.237,1.237,0,0,0-.519,1,1.48,1.48,0,0,0,.651,1.2,9.309,9.309,0,0,0,2.7,1.118q1.116.345,1.728.559a12.234,12.234,0,0,1,1.556.7,5.11,5.11,0,0,1,1.436,1.037,5.216,5.216,0,0,1,.876,1.436,5.544,5.544,0,0,1-1.529,6.223A7.767,7.767,0,0,1,232.852,119.881Z" transform="translate(-168.44 -100.52)"/><path class="b" d="M249.745,118.053a8.565,8.565,0,0,1-10.318,0A5.808,5.808,0,0,1,237.4,113.4v-12.6h4.255v12.234q0,2.6,2.926,2.606t2.925-2.606V100.793h4.255v12.6A5.814,5.814,0,0,1,249.745,118.053Z" transform="translate(-164.085 -100.421)"/><path class="b" d="M257.632,100.793a8.627,8.627,0,0,1,6.45,2.673,9.79,9.79,0,0,1,0,13.271,8.627,8.627,0,0,1-6.45,2.673h-7.445V100.793Zm0,14.52a4.738,4.738,0,0,0,3.577-1.423,5.927,5.927,0,0,0,0-7.579,4.743,4.743,0,0,0-3.577-1.423h-3.19v10.424Z" transform="translate(-159.448 -100.421)"/><path class="b" d="M280,117.088a9.822,9.822,0,1,1,2.82-6.888A9.383,9.383,0,0,1,280,117.088Zm-10.73-2.9a5.621,5.621,0,0,0,7.737,0,5.89,5.89,0,0,0,0-7.978,5.621,5.621,0,0,0-7.737,0,5.89,5.89,0,0,0,0,7.978Z" transform="translate(-154.633 -100.52)"/><path class="b" d="M288.514,119.881a9.681,9.681,0,1,1,0-19.361,9.533,9.533,0,0,1,4.627,1.157,8.757,8.757,0,0,1,3.351,3.151l-3.67,2.127a4.19,4.19,0,0,0-1.755-1.689,5.42,5.42,0,0,0-2.553-.6,5.262,5.262,0,0,0-3.95,1.515,6.2,6.2,0,0,0,0,8.031,5.258,5.258,0,0,0,3.95,1.517,5.4,5.4,0,0,0,2.565-.612,4.12,4.12,0,0,0,1.743-1.676l3.67,2.127a8.562,8.562,0,0,1-3.324,3.152A9.588,9.588,0,0,1,288.514,119.881Z" transform="translate(-149.054 -100.52)"/></g>
<text class="c" transform="translate(193.585 128.958)">
<tspan x="0" y="0">консультация у доктора</tspan></text>
</g>
</svg>