<svg xmlns="http://www.w3.org/2000/svg" width="232" height="49.876" viewBox="0 0 232 49.876"><defs><style>.a,.b{fill:#f33;}.b{font-size:14.5px;font-family:Gilroy-SemiBold, Gilroy;font-weight:600;}</style></defs><g transform="translate(-140 -42.124)"><path class="a" d="M176.6,117.324a1.651,1.651,0,0,1-1.727-1.061c-.323-.726-.711-1.423-1.124-2.238-.14.345-.226.546-.3.751q-1.26,3.357-2.519,6.713c-.3.809-.787,1.184-1.438,1.137-.667-.049-1.086-.478-1.261-1.326q-1.257-6.079-2.51-12.161-.325-1.578-.658-3.154a2.484,2.484,0,0,0-.258.792q-1.922,10.555-3.842,21.106c-.168.912-.566,1.344-1.257,1.4-.657.051-1.129-.311-1.446-1.127q-.994-2.568-1.981-5.14l-3.3-8.574c-.151.38-.234.581-.309.784-.787,2.092-1.584,4.18-2.356,6.278a1.382,1.382,0,0,1-2.636.268c-.824-1.34-1.669-2.665-2.49-4.007a.8.8,0,0,0-.781-.46c-.451.006-.9.006-1.352.008l16.989,16.877a.735.735,0,0,0,1.034,0l16.97-16.861C177.563,117.328,177.082,117.313,176.6,117.324Z" transform="translate(8.432 -42.399)"/><path class="a" d="M178.339,92.03a15.173,15.173,0,0,0-13.8,8.907,15.149,15.149,0,1,0-25.28,16.118,14.927,14.927,0,0,0,1.692,1.681l3.43,3.408c1.629.018,3.256.032,4.883,0a1.77,1.77,0,0,1,1.736.966c.508.886,1.08,1.736,1.681,2.693.134-.346.22-.572.306-.8q1.306-3.479,2.613-6.96c.321-.858.74-1.229,1.39-1.2.755.029,1.1.52,1.352,1.174q2.224,5.83,4.482,11.647c.086.225.185.445.338.814.088-.429.141-.666.186-.906q2.127-11.7,4.253-23.393c.155-.852.626-1.3,1.335-1.312s1.177.437,1.353,1.293q1.26,6.079,2.512,12.161c.374,1.81.747,3.622,1.163,5.638.158-.381.245-.569.317-.763.657-1.74,1.32-3.476,1.958-5.222a1.379,1.379,0,0,1,2.676-.149c.632,1.293,1.292,2.572,1.916,3.868a.706.706,0,0,0,.754.474c1.06-.023,2.121-.009,3.182-.022l4.3-4.27,0,0a15.143,15.143,0,0,0-10.72-25.846Z" transform="translate(4.415 -49.906)"/><path class="a" d="M194.531,122.369a10.926,10.926,0,1,1,0-21.849,10.754,10.754,0,0,1,5.222,1.306,9.872,9.872,0,0,1,3.782,3.556l-4.142,2.4a4.724,4.724,0,0,0-1.979-1.906,6.123,6.123,0,0,0-2.882-.675,5.939,5.939,0,0,0-4.457,1.71,7,7,0,0,0,0,9.064,5.934,5.934,0,0,0,4.457,1.712,6.1,6.1,0,0,0,2.9-.691,4.655,4.655,0,0,0,1.966-1.892l4.142,2.4a9.651,9.651,0,0,1-3.751,3.557A10.816,10.816,0,0,1,194.531,122.369Z" transform="translate(21.965 -53.339)"/><path class="a" d="M215.914,119.218a11.089,11.089,0,1,1,3.181-7.773A10.592,10.592,0,0,1,215.914,119.218Zm-12.11-3.271a6.346,6.346,0,0,0,8.733,0,6.647,6.647,0,0,0,0-9,6.346,6.346,0,0,0-8.733,0,6.647,6.647,0,0,0,0,9Z" transform="translate(29.304 -53.339)"/><path class="a" d="M224.913,100.793h4.8V121.8h-3.6l-8.1-11.406V121.8h-4.8V100.793h3.6l8.1,11.4Z" transform="translate(37.892 -53.192)"/><path class="a" d="M233.809,122.369a9.627,9.627,0,0,1-5.357-1.4,7.59,7.59,0,0,1-3.047-3.8l4.142-2.4a4.459,4.459,0,0,0,4.411,2.911q2.852,0,2.852-1.712a1.615,1.615,0,0,0-.915-1.455,16.8,16.8,0,0,0-3.437-1.215,15.41,15.41,0,0,1-2.31-.81,9.732,9.732,0,0,1-1.936-1.186,4.759,4.759,0,0,1-1.44-1.846,6.2,6.2,0,0,1-.5-2.552,5.755,5.755,0,0,1,2.086-4.652,7.509,7.509,0,0,1,4.968-1.74,8.538,8.538,0,0,1,4.56,1.215,8.339,8.339,0,0,1,3.122,3.527l-4.051,2.372a4.685,4.685,0,0,0-1.41-1.816,3.678,3.678,0,0,0-2.221-.615,2.625,2.625,0,0,0-1.666.464,1.4,1.4,0,0,0-.586,1.126,1.67,1.67,0,0,0,.735,1.35,10.5,10.5,0,0,0,3.047,1.261q1.26.39,1.95.631a13.8,13.8,0,0,1,1.756.8,5.767,5.767,0,0,1,1.621,1.17,5.888,5.888,0,0,1,.989,1.621,6.256,6.256,0,0,1-1.726,7.023A8.765,8.765,0,0,1,233.809,122.369Z" transform="translate(44.454 -53.339)"/><path class="a" d="M251.332,120.272a9.666,9.666,0,0,1-11.644,0,6.554,6.554,0,0,1-2.282-5.254V100.793h4.8V114.6q0,2.939,3.3,2.941t3.3-2.941V100.793h4.8v14.225A6.562,6.562,0,0,1,251.332,120.272Z" transform="translate(50.91 -53.192)"/><path class="a" d="M258.589,100.793a9.736,9.736,0,0,1,7.279,3.016,11.048,11.048,0,0,1,0,14.977,9.736,9.736,0,0,1-7.279,3.016h-8.4V100.793Zm0,16.386a5.347,5.347,0,0,0,4.037-1.606,6.688,6.688,0,0,0,0-8.553,5.353,5.353,0,0,0-4.037-1.606h-3.6v11.764Z" transform="translate(57.787 -53.192)"/><path class="a" d="M282.123,119.218a11.085,11.085,0,1,1,3.182-7.773A10.589,10.589,0,0,1,282.123,119.218Zm-12.109-3.271a6.344,6.344,0,0,0,8.731,0,6.647,6.647,0,0,0,0-9,6.344,6.344,0,0,0-8.731,0,6.647,6.647,0,0,0,0,9Z" transform="translate(64.925 -53.339)"/><path class="a" d="M289.758,122.369a10.926,10.926,0,1,1,0-21.849,10.759,10.759,0,0,1,5.222,1.306,9.883,9.883,0,0,1,3.782,3.556l-4.142,2.4a4.728,4.728,0,0,0-1.981-1.906,6.117,6.117,0,0,0-2.881-.675,5.939,5.939,0,0,0-4.457,1.71,7,7,0,0,0,0,9.064,5.934,5.934,0,0,0,4.457,1.712,6.1,6.1,0,0,0,2.895-.691,4.65,4.65,0,0,0,1.967-1.892l4.142,2.4a9.662,9.662,0,0,1-3.751,3.557A10.821,10.821,0,0,1,289.758,122.369Z" transform="translate(73.198 -53.339)"/></g></svg>
