<svg width="58" height="50" viewBox="0 0 58 50" fill="none" xmlns="http://www.w3.org/2000/svg">
<g id="Group 1">
<path id="Path 1" d="M45.0346 32.925C44.1964 32.9434 43.6504 32.6297 43.3074 31.8637C42.9844 31.1378 42.5968 30.4411 42.1831 29.6259C42.0432 29.9705 41.957 30.1719 41.8801 30.3765C41.0404 32.6143 40.2037 34.8521 39.3609 37.0899C39.0563 37.8989 38.5734 38.2742 37.9228 38.2265C37.2553 38.1773 36.837 37.7482 36.6617 36.9007C35.8234 32.8481 34.9898 28.7923 34.1516 24.7397C33.9348 23.6877 33.7133 22.6357 33.4933 21.5852C33.3426 21.859 33.2826 22.1174 33.235 22.3773C31.9538 29.4137 30.6757 36.4486 29.393 43.4835C29.2254 44.3955 28.827 44.8277 28.1364 44.8815C27.4797 44.9323 27.0075 44.5708 26.6907 43.7542C26.0278 42.0423 25.3696 40.3274 24.7097 38.6141C23.6301 35.8088 22.5503 33.005 21.4092 30.0397C21.2584 30.4196 21.1754 30.6211 21.1 30.8241C20.3126 32.9157 19.5159 35.0044 18.7438 37.1022C18.5177 37.7128 18.1763 38.1619 17.4934 38.2219C16.8351 38.2788 16.4306 37.8943 16.1076 37.3698C15.2833 36.0302 14.4389 34.7045 13.6176 33.3633C13.4284 33.0526 13.2285 32.8989 12.8363 32.9035C12.3856 32.9096 11.935 32.9096 11.4844 32.9112L28.4733 49.7878C28.6163 49.9293 28.8009 50 28.9885 50C29.1777 50 29.3638 49.9293 29.5068 49.7878L46.4772 32.9265C45.9958 32.9296 45.5144 32.9142 45.0346 32.925Z" fill="#d40408"/>
<path id="Path 2" d="M42.7537 0.123749C36.6232 0.123749 31.3354 3.78423 28.9515 9.03039C26.5692 3.78423 21.28 0.123749 15.1525 0.123749C6.79494 0.123749 0 6.92178 0 15.2763C0 17.0388 0.301437 18.7291 0.85817 20.3056C1.49184 22.0989 2.45311 23.7369 3.67122 25.1488C4.18954 25.7532 4.75395 26.3146 5.36302 26.8298L8.79279 30.2381C10.4215 30.2565 12.0488 30.2703 13.676 30.2427C14.4788 30.2288 15.0141 30.5164 15.4124 31.2085C15.92 32.0944 16.4921 32.945 17.0935 33.9016C17.2273 33.5556 17.3134 33.3295 17.3995 33.1034C18.2701 30.784 19.139 28.4632 20.0126 26.1439C20.3341 25.2857 20.7524 24.915 21.403 24.9396C22.1581 24.9688 22.5057 25.4595 22.7549 26.1131C24.2375 29.9997 25.7402 33.8785 27.2367 37.7605C27.3228 37.985 27.4212 38.205 27.5751 38.5741C27.6627 38.145 27.7165 37.9081 27.7611 37.6682C29.1792 29.8705 30.5942 22.0727 32.0137 14.275C32.1691 13.423 32.6397 12.9708 33.3488 12.9631C34.0501 12.9569 34.5253 13.3999 34.7022 14.2566C35.5419 18.3092 36.3771 22.3634 37.2138 26.4176C37.5875 28.2279 37.9612 30.0397 38.3765 32.056C38.5349 31.6746 38.621 31.4869 38.6933 31.2932C39.35 29.5536 40.0129 27.8172 40.6512 26.0716C40.885 25.4333 41.2464 24.9734 41.9647 24.9442C42.6553 24.9181 43.0444 25.3426 43.3273 25.9224C43.9595 27.2159 44.6193 28.494 45.2437 29.7905C45.4083 30.1335 45.6021 30.2734 45.9974 30.2642C47.057 30.2411 48.1183 30.255 49.1795 30.2427L53.4752 25.9732L53.4736 25.9701C55.0271 24.4136 56.2451 22.5234 57.008 20.4148C57.5878 18.8091 57.9046 17.0788 57.9046 15.2763C57.9046 6.92178 51.1066 0.123749 42.7537 0.123749Z" fill="#d40408"/>
</g>
</svg>
