<svg width="22" height="22" viewBox="0 0 22 22" fill="none" xmlns="http://www.w3.org/2000/svg">
<g id="Layer">
<g id="Vrstva 206">
<path id="Path 474" fill-rule="evenodd" clip-rule="evenodd" d="M19 3.78714H18V3.20714C17.9982 2.26754 17.5563 1.38306 16.806 0.817417C16.0558 0.251774 15.0838 0.0703116 14.18 0.327136L2.73 3.59714C2.56115 3.64991 2.40932 3.74653 2.29 3.87714C0.947662 4.20411 0.00219846 5.40555 0 6.78714V18.7871C0 20.444 1.34315 21.7871 3 21.7871H19C20.6569 21.7871 22 20.444 22 18.7871V6.78714C22 5.13028 20.6569 3.78714 19 3.78714ZM14.73 2.24714C15.0377 2.16061 15.3682 2.22639 15.6193 2.42413C15.8705 2.62186 16.0119 2.92773 16 3.24714V3.82714H9.36L14.73 2.24714ZM20 13.7871H17C16.4477 13.7871 16 13.3394 16 12.7871C16 12.2349 16.4477 11.7871 17 11.7871H20V13.7871ZM20 9.78714H17.15C15.6644 9.74918 14.3621 10.7742 14.05 12.2271C13.8831 13.1056 14.1167 14.0128 14.6873 14.7013C15.2578 15.3898 16.1058 15.788 17 15.7871H20V18.7871C20 19.3394 19.5523 19.7871 19 19.7871H3C2.44772 19.7871 2 19.3394 2 18.7871V6.78714C2 6.23485 2.44772 5.78714 3 5.78714H19C19.5523 5.78714 20 6.23485 20 6.78714V9.78714Z" fill="#0E1317"/>
</g>
</g>
</svg>
