<svg width="20" height="24" viewBox="0 0 20 24" fill="none" xmlns="http://www.w3.org/2000/svg">
<g id="Layer">
<g id="Vrstva 105">
<path id="Path 117" fill-rule="evenodd" clip-rule="evenodd" d="M13.7 11.7217C15.7148 10.1434 16.5067 7.46075 15.6719 5.04131C14.8371 2.62187 12.5594 0.998337 10 0.998337C7.44059 0.998337 5.16294 2.62187 4.32814 5.04131C3.49333 7.46075 4.28517 10.1434 6.3 11.7217C2.49957 13.2353 0.00422287 16.9109 0 21.0017V22.0017C0 22.554 0.447715 23.0017 1 23.0017C1.55228 23.0017 2 22.554 2 22.0017V21.0017C2 16.5834 5.58172 13.0017 10 13.0017C14.4183 13.0017 18 16.5834 18 21.0017V22.0017C18 22.554 18.4477 23.0017 19 23.0017C19.5523 23.0017 20 22.554 20 22.0017V21.0017C19.9958 16.9109 17.5004 13.2353 13.7 11.7217ZM6 7.00168C6 4.79254 7.79086 3.00168 10 3.00168C12.2091 3.00168 14 4.79254 14 7.00168C14 9.21082 12.2091 11.0017 10 11.0017C7.79086 11.0017 6 9.21082 6 7.00168Z" fill="#A7A7A7"/>
</g>
</g>
</svg>
