<svg width="20" height="20" viewBox="0 0 20 20" fill="none" xmlns="http://www.w3.org/2000/svg">
<g id="Layer">
<g id="Vrstva 92">
<path id="Path 107" fill-rule="evenodd" clip-rule="evenodd" d="M11.1328 0.667961C8.02459 0.667962 5.19755 2.46858 3.88328 5.28553C2.56899 8.10278 3.00558 11.426 5.00276 13.808L1.18276 17.618C0.790641 18.0101 0.790641 18.6458 1.18276 19.038C1.57489 19.4301 2.21064 19.4301 2.60276 19.038L6.45276 15.158C7.80719 16.1417 9.43878 16.6704 11.1128 16.668C15.531 16.668 19.1128 13.0862 19.1128 8.66796C19.1128 4.24968 15.531 0.667962 11.1128 0.667962L11.1328 0.667961ZM11.1328 14.668C7.81906 14.668 5.13276 11.9817 5.13276 8.66796C5.13276 5.35425 7.81906 2.66796 11.1328 2.66796C14.4465 2.66796 17.1328 5.35425 17.1328 8.66796C17.1328 11.9817 14.4465 14.668 11.1328 14.668Z" fill="#0E1317"/>
</g>
</g>
</svg>
