<svg version="1.2" baseProfile="tiny-ps" xmlns="http://www.w3.org/2000/svg" viewBox="0 0 81 91" width="81" height="91">
	<title>home - 0</title>
	<style>
		tspan { white-space:pre }
		.shp0 { fill: #ffffff }
	</style>
	<g id="home - 0">
		<g id="Steps">
			<g id="themselves">
				<path id="Path 52" fill-rule="evenodd" class="shp0" d="M6.97 29.78L4.55 28.62C5.34 26.98 6.25 25.38 7.26 23.86L9.5 25.35C8.56 26.77 7.71 28.26 6.97 29.78ZM13.15 70.57L11.18 72.39C1.24 61.67 -1.59 46.89 2.46 33.92L5.02 34.72C1.24 46.84 3.91 60.6 13.15 70.57ZM72.28 45.64C72.28 63.4 57.83 77.86 40.06 77.86C22.3 77.86 7.85 63.4 7.85 45.64C7.85 27.88 22.3 13.43 40.06 13.43C57.83 13.43 72.28 27.88 72.28 45.64ZM69.59 45.64C69.59 29.36 56.34 16.11 40.06 16.11C23.78 16.11 10.54 29.36 10.54 45.64C10.54 61.92 23.78 75.17 40.06 75.17C56.34 75.17 69.59 61.92 69.59 45.64ZM65.11 45.64C65.11 59.45 53.87 70.68 40.06 70.68C26.25 70.68 15.02 59.45 15.02 45.64C15.02 31.83 26.25 20.6 40.06 20.6C53.87 20.6 65.11 31.83 65.11 45.64ZM62.37 47.09L57.45 47.09L57.45 44.41L62.38 44.41C62.1 39.27 60.08 34.6 56.9 30.96L53.41 34.44L51.51 32.54L55.02 29.04C51.42 25.79 46.75 23.7 41.62 23.35L41.62 28.36L38.93 28.36L38.93 23.31C33.76 23.57 29.05 25.6 25.38 28.8L28.97 32.39L27.07 34.29L23.46 30.69C20.19 34.31 18.09 39.02 17.76 44.19L22.88 44.19L22.88 46.88L17.74 46.88C18.03 52.06 20.09 56.78 23.32 60.43L26.92 56.84L28.82 58.74L25.22 62.34C28.85 65.58 33.55 67.65 38.72 67.95L38.72 62.93L41.4 62.93L41.4 67.95C46.55 67.65 51.22 65.6 54.86 62.38L51.36 58.89L53.26 56.99L56.76 60.49C59.97 56.87 62.04 52.22 62.37 47.09ZM22.92 16.23L20.47 15.1L27.31 0.27L52.91 0.27L59.74 15.1L57.3 16.23L51.19 2.96L29.03 2.96L27.43 6.43L46.24 6.43L46.24 9.11L26.19 9.11L22.92 16.23ZM57.3 74.86L59.74 75.99L52.9 90.82L27.3 90.82L20.47 75.99L22.92 74.86L29.02 88.14L51.18 88.14L57.3 74.86ZM80.82 43.41L80.82 48.02C80.82 50.35 78.93 52.24 76.61 52.24L74.36 52.24L74.36 49.55C78.59 49.55 78.14 50.05 78.14 43.41C78.14 42.57 77.45 41.89 76.61 41.89L74.36 41.89L74.36 39.2L76.61 39.2C78.93 39.2 80.82 41.09 80.82 43.41ZM45.37 45.82C45.37 48.71 43.01 51.06 40.13 51.06C37.24 51.06 34.89 48.71 34.89 45.82C34.89 42.93 37.24 40.58 40.13 40.58C43.01 40.58 45.37 42.93 45.37 45.82ZM40.13 43.27C36.75 43.27 36.75 48.38 40.13 48.38C43.5 48.38 43.5 43.27 40.13 43.27Z" />
			</g>
		</g>
	</g>
</svg>
