<svg version="1.2" baseProfile="tiny-ps" xmlns="http://www.w3.org/2000/svg" viewBox="0 0 92 92" width="92" height="92">
	<title>Path 55</title>
  <style>
    tspan { white-space:pre }
    .shp0 { fill: #ffffff }
  </style>
	<path id="Path 55" fill-rule="evenodd" class="shp0" d="M91.08 0.85L91.08 63.58L0.72 63.58L0.72 0.85L91.08 0.85ZM88.64 3.29L3.16 3.29L3.16 61.14L88.64 61.14L88.64 3.29ZM41.61 65.94L38.15 75.62L41.78 75.62L41.78 78.06L24.79 78.06L24.79 80.61L22.35 80.61L22.35 75.62L35.56 75.62L39.3 65.12L41.61 65.94ZM68.12 80.61L68.12 78.06L51.38 78.06L51.38 75.62L54.06 75.62L50.61 65.94L52.91 65.12L56.66 75.62L70.57 75.62L70.57 80.61L68.12 80.61ZM72.9 55.97L7.17 55.97L7.17 7.52L84.42 7.52L84.42 47.6L81.97 47.6L81.97 9.96L9.61 9.96L9.61 53.53L72.9 53.53L72.9 55.97ZM41.26 39.07L14.86 39.07L14.86 16.49L41.26 16.49L41.26 39.07ZM38.82 18.93L17.31 18.93L17.31 36.63L38.82 36.63L38.82 18.93ZM24.02 32.11C24.02 20.1 22.8 20.78 33.9 26.69C34.45 26.98 34.79 27.55 34.79 28.17C34.79 29.52 34.27 29.46 26.5 33.6C25.38 34.2 24.02 33.39 24.02 32.11ZM26.47 30.85L31.49 28.17L26.47 25.5L26.47 30.85ZM84.65 53.13C84.65 55.74 82.53 57.87 79.92 57.87C77.31 57.87 75.19 55.74 75.19 53.13C75.19 50.53 77.31 48.4 79.92 48.4C82.53 48.4 84.65 50.53 84.65 53.13ZM82.21 53.13C82.21 50.11 77.63 50.11 77.63 53.13C77.63 56.16 82.21 56.16 82.21 53.13ZM33.41 47.29L33.41 44.84L36.66 44.84L36.66 47.29L33.41 47.29ZM26.89 47.29L26.89 44.84L30.15 44.84L30.15 47.29L26.89 47.29ZM20.38 47.29L20.38 44.84L23.64 44.84L23.64 47.29L20.38 47.29ZM13.87 44.84L17.13 44.84L17.13 47.29L13.87 47.29L13.87 44.84ZM41.89 49.2L39.44 49.2L39.44 43.13L41.89 43.13L41.89 44.84L76.67 44.84L76.67 47.29L41.89 47.29L41.89 49.2ZM5.71 82.18L89.16 82.18L89.16 84.62L5.71 84.62L5.71 82.18ZM63.76 88.87L67.95 88.87L67.95 91.32L63.76 91.32L63.76 88.87ZM23.85 88.87L59.3 88.87L59.3 91.32L23.85 91.32L23.85 88.87ZM50.74 33.85L44.26 33.85L50.73 25.18L50.73 21.73C50.73 18.32 53.51 15.54 56.92 15.54L71.04 15.54C74.46 15.54 77.24 18.32 77.24 21.73L77.24 33.41C77.24 36.83 74.46 39.6 71.04 39.6L56.92 39.6C53.66 39.6 50.97 37.06 50.74 33.85ZM53.17 31.41L53.17 33.41C53.17 35.48 54.85 37.16 56.92 37.16L71.04 37.16C73.11 37.16 74.8 35.48 74.8 33.41L74.8 21.73C74.8 19.66 73.11 17.98 71.04 17.98L56.92 17.98C54.85 17.98 53.17 19.66 53.17 21.73L53.17 25.99L49.13 31.41L53.17 31.41ZM65.55 25.69L62.3 25.69L62.3 23.24L65.55 23.24L65.55 25.69ZM59.04 25.69L55.79 25.69L55.79 23.24L59.04 23.24L59.04 25.69ZM72.07 25.69L68.81 25.69L68.81 23.24L72.07 23.24L72.07 25.69ZM66 31.58L55.79 31.58L55.79 29.14L66 29.14L66 31.58Z" />
</svg>
