<svg version="1.2" baseProfile="tiny-ps" xmlns="http://www.w3.org/2000/svg" viewBox="0 0 95 81" width="95" height="81">
	<title>home - 0</title>
  <style>
    tspan { white-space:pre }
    .shp0 { fill: #ffffff }
  </style>
	<g id="home - 0">
		<g id="Steps">
			<g id="themselves">
				<path id="Path 53" fill-rule="evenodd" class="shp0" d="M93.64 25.18L90.95 25.18L90.95 19.32L34.22 19.32L34.22 25.18L31.54 25.18L31.54 16.63L93.64 16.63L93.64 25.18ZM57.07 14.04C53.38 14.04 50.38 11.03 50.38 7.34C50.38 3.65 53.38 0.65 57.07 0.65C60.76 0.65 63.76 3.65 63.76 7.34C63.76 11.03 60.76 14.04 57.07 14.04ZM57.07 3.34C54.86 3.34 53.06 5.13 53.06 7.34C53.06 9.55 54.86 11.35 57.07 11.35C59.28 11.35 61.08 9.55 61.08 7.34C61.08 5.13 59.28 3.34 57.07 3.34ZM64.49 13.08L65.87 10.78C68.52 12.37 71.95 10.46 71.95 7.34C71.95 4.13 68.34 2.23 65.7 4.02L64.2 1.79C68.61 -1.19 74.63 1.98 74.63 7.34C74.63 12.55 68.92 15.75 64.49 13.08ZM67.57 80.13L57.55 80.13C51.95 80.13 46.59 78.43 42.07 75.22L43.63 73.03C51.09 78.33 57.52 77.45 67.57 77.45C83.22 77.45 94.69 62.79 90.96 47.61L85.78 26.52L39.34 26.52L36.55 37.87L33.94 37.23L37.23 23.83L87.89 23.83L93.57 46.97C97.72 63.86 84.94 80.13 67.57 80.13ZM67.57 71.12C57.72 71.12 51.45 72.15 45.25 66.19L47.11 64.25C52.45 69.39 57.74 68.44 67.57 68.44C74.63 68.44 80.41 63.65 82.14 57.31L84.73 58.02C82.69 65.49 75.88 71.12 67.57 71.12ZM85.34 53.61L82.66 53.58C82.67 52.3 82.52 51.02 82.21 49.76L84.82 49.12C85.19 50.6 85.36 52.11 85.34 53.61ZM24.29 76.22C14.44 76.22 6.42 67.9 6.42 57.67C6.42 47.43 14.44 39.11 24.29 39.11C34.15 39.11 42.17 47.43 42.17 57.67C42.17 67.9 34.15 76.22 24.29 76.22ZM24.29 41.8C15.92 41.8 9.11 48.92 9.11 57.67C9.11 66.41 15.92 73.53 24.29 73.53C32.67 73.53 39.48 66.41 39.48 57.67C39.48 48.92 32.67 41.8 24.29 41.8ZM26.58 61.69C26.58 57.97 19.26 59.62 19.26 53.86C19.26 50.59 22.29 49.29 23.2 49.29L23.2 46.84L26.18 46.84L26.18 49.31C28.11 49.74 29.89 51.65 29.86 54.56L29.83 54.61L26.58 54.61C26.58 50.83 22.59 51.09 22.59 53.88C22.59 55.29 23.53 55.84 24.95 56.4C26.63 57.06 27.87 57.77 28.68 58.52C30.73 60.42 30.47 65.41 25.95 66.24L25.95 68.49L22.97 68.49L22.97 66.25C20.34 65.71 18.64 63.96 18.7 60.94L18.72 60.89L21.96 60.89C21.96 62.86 22.94 63.73 24.44 63.73C25.88 63.73 26.58 62.89 26.58 61.69ZM7.86 75.85C6.96 74.99 6.12 74.04 5.36 73.04L7.46 71.4C8.13 72.29 8.88 73.13 9.67 73.9L7.86 75.85ZM3.33 69.88C2.73 68.77 2.21 67.62 1.79 66.43L4.26 65.51C4.64 66.56 5.11 67.6 5.64 68.58L3.33 69.88ZM0.77 62.8C0.52 61.57 0.37 60.31 0.3 59.05L2.94 58.91C2.99 60.03 3.14 61.16 3.36 62.26L0.77 62.8ZM3 55.52L0.37 55.28C0.49 54.02 0.69 52.77 0.99 51.55L3.55 52.19C3.29 53.28 3.1 54.4 3 55.52ZM4.58 48.99L2.15 47.96C2.62 46.79 3.18 45.66 3.82 44.58L6.08 45.97C5.51 46.93 5.01 47.95 4.58 48.99ZM8.01 43.23L5.99 41.5C6.79 40.53 7.66 39.62 8.59 38.8L10.33 40.82C9.5 41.56 8.72 42.37 8.01 43.23ZM12.99 38.82L11.59 36.54C12.65 35.87 13.76 35.29 14.91 34.8L15.92 37.29C14.91 37.71 13.92 38.23 12.99 38.82Z" />
			</g>
		</g>
	</g>
</svg>
