<svg version="1.2" baseProfile="tiny-ps" xmlns="http://www.w3.org/2000/svg" viewBox="0 0 98 104" width="98" height="104">
	<title>home - 0</title>
  <style>
    tspan { white-space:pre }
    .shp0 { fill: #ffffff }
  </style>
	<g id="home - 0">
		<g id="Steps">
			<g id="themselves">
				<path id="Path 54" fill-rule="evenodd" class="shp0" d="M20.94 20.7L16.31 16.19L22.7 15.26L25.56 9.47L28.42 15.26L34.81 16.19L30.19 20.7L31.28 27.07L25.56 24.06L19.85 27.07L20.94 20.7ZM22.09 18.07L23.82 19.76L23.41 22.15L25.56 21.02L27.71 22.15L27.3 19.76L29.04 18.07L26.64 17.72L25.56 15.54L24.49 17.72L22.09 18.07ZM44.94 12.23L40.32 7.72L46.71 6.79L49.56 1L52.42 6.79L58.81 7.72L54.19 12.23L55.28 18.59L49.56 15.59L43.85 18.59L44.94 12.23ZM46.09 9.6L47.83 11.29L47.42 13.68L49.56 12.55L51.71 13.68L51.3 11.29L53.04 9.6L50.64 9.25L49.56 7.07L48.49 9.25L46.09 9.6ZM68.94 20.7L64.32 16.19L70.71 15.26L73.57 9.47L76.43 15.26L82.82 16.19L78.19 20.7L79.28 27.07L73.57 24.06L67.85 27.07L68.94 20.7ZM70.09 18.07L71.83 19.76L71.42 22.15L73.57 21.02L75.72 22.15L75.31 19.76L77.04 18.07L74.64 17.72L73.57 15.54L72.5 17.72L70.09 18.07ZM34.59 78.21L0.93 78.21L0.93 41.79L34.59 41.79L34.59 78.21ZM31.91 44.48L3.62 44.48L3.62 75.52L6.97 75.52C6.97 70.38 9.86 66.73 13.78 65.25C8.13 61.34 10.92 52.48 17.76 52.48C24.71 52.48 27.43 61.6 21.54 65.39C25.27 66.95 27.98 70.51 27.98 75.52L31.91 75.52L31.91 44.48ZM9.66 75.52L25.29 75.52C25.29 64.47 9.66 64.58 9.66 75.52ZM22.08 59.49C22.08 57.1 20.14 55.17 17.76 55.17C15.38 55.17 13.44 57.1 13.44 59.49C13.44 61.87 15.38 63.81 17.76 63.81C20.14 63.81 22.08 61.87 22.08 59.49ZM97.7 49.11L97.7 70.96C97.7 75.8 93.77 79.74 88.93 79.74L59.08 79.74C54.24 79.74 50.3 75.8 50.3 70.96L50.3 69.97L38.28 69.97L50.3 54.78L50.3 49.11C50.3 44.27 54.24 40.34 59.08 40.34L88.93 40.34C93.77 40.34 97.7 44.27 97.7 49.11ZM95.02 49.11C95.02 45.76 92.29 43.03 88.93 43.03L59.08 43.03C55.72 43.03 52.99 45.76 52.99 49.11L52.99 55.71L43.83 67.29L52.99 67.29L52.99 70.96C52.99 74.32 55.72 77.05 59.08 77.05L88.93 77.05C92.29 77.05 95.02 74.32 95.02 70.96L95.02 49.11ZM71.96 53.26L68.38 53.26L68.38 50.58L71.96 50.58L71.96 53.26ZM79.13 53.26L75.55 53.26L75.55 50.58L79.13 50.58L79.13 53.26ZM64.8 53.26L61.22 53.26L61.22 50.58L64.8 50.58L64.8 53.26ZM86.29 53.26L82.71 53.26L82.71 50.58L86.29 50.58L86.29 53.26ZM61.22 58.42L88.52 58.42L88.52 61.11L61.22 61.11L61.22 58.42ZM61.22 66.27L75.02 66.27L75.02 68.95L61.22 68.95L61.22 66.27ZM22 91.05L75.65 91.05L75.65 93.74L22 93.74L22 91.05ZM36.07 101.1L39.65 101.1L39.65 103.78L36.07 103.78L36.07 101.1ZM43.24 101.1L46.82 101.1L46.82 103.78L43.24 103.78L43.24 101.1ZM57.56 101.1L61.15 101.1L61.15 103.78L57.56 103.78L57.56 101.1ZM50.4 101.1L53.98 101.1L53.98 103.78L50.4 103.78L50.4 101.1Z" />
			</g>
		</g>
	</g>
</svg>
