<svg width="81" height="91" viewBox="0 0 81 91" fill="none" xmlns="http://www.w3.org/2000/svg">
<path id="Path 52" d="M6.97083 29.7838L4.55 28.6186C5.33814 26.9796 6.25077 25.38 7.26106 23.8629L9.49741 25.3531C8.55518 26.7665 7.70615 28.2568 6.97083 29.7838ZM5.02467 34.7196L2.4596 33.918C-1.5931 46.8937 1.24247 61.6707 11.1821 72.3939L13.1524 70.5677C3.9123 60.5995 1.23975 46.8383 5.02467 34.7196ZM72.277 45.6417C72.277 63.4045 57.8261 77.8564 40.0632 77.8564C22.3003 77.8564 7.84858 63.4045 7.84858 45.6417C7.84858 27.8788 22.3003 13.428 40.0632 13.428C57.8261 13.428 72.277 27.8788 72.277 45.6417ZM69.5901 45.6417C69.5901 29.3602 56.3447 16.1149 40.0632 16.1149C23.7817 16.1149 10.5354 29.3602 10.5354 45.6417C10.5354 61.9232 23.7817 75.1695 40.0632 75.1695C56.3447 75.1695 69.5901 61.9232 69.5901 45.6417ZM65.1057 45.6417C65.1057 59.4504 53.8719 70.6851 40.0632 70.6851C26.2545 70.6851 15.0207 59.4504 15.0207 45.6417C15.0207 31.833 26.2545 20.5983 40.0632 20.5983C53.8719 20.5983 65.1057 31.833 65.1057 45.6417ZM62.3669 47.0926H57.4517V44.4058H62.3839C62.1027 39.2729 60.0795 34.5995 56.9 30.9588L53.4142 34.4446L51.5146 32.545L55.0183 29.0405C51.4152 25.7911 46.7508 23.6999 41.6162 23.3452V28.3553H38.9293V23.3138C33.7562 23.5735 29.0453 25.6039 25.3804 28.8049L28.9682 32.3928L27.0686 34.2924L23.462 30.6866C20.1911 34.3139 18.0927 39.0159 17.7595 44.1917H22.8798V46.8785H17.7434C18.0273 52.0624 20.0872 56.7787 23.3213 60.4346L26.9164 56.8397L28.816 58.7393L25.2174 62.3379C28.8545 65.5756 33.5502 67.6454 38.7153 67.9534V62.9281H41.4021V67.9543C46.5457 67.6489 51.2244 65.5961 54.8562 62.3835L51.3633 58.8906L53.2629 56.991L56.7594 60.4875C59.9747 56.8746 62.0373 52.2164 62.3669 47.0926ZM26.1909 9.11462H46.2403V6.42773H27.4287L29.0273 2.9563H51.1904L57.2959 16.2276L59.7365 15.1046L52.9118 0.269409H27.3068L20.475 15.1046L22.9156 16.2276L26.1909 9.11462ZM51.1842 88.1363H29.0202L22.9156 74.8641L20.4742 75.9871L27.2997 90.8231H52.9046L59.7365 75.9871L57.2959 74.8641L51.1842 88.1363ZM76.61 39.2031H74.3566V41.8899H76.61C77.4509 41.8899 78.1352 42.5733 78.1352 43.4152C78.1352 50.0517 78.5911 49.5502 74.3566 49.5502V52.237H76.61C78.9323 52.237 80.8221 50.3481 80.8221 48.0249V43.4152C80.8221 41.092 78.9323 39.2031 76.61 39.2031ZM45.3653 45.8244C45.3653 48.7128 43.0143 51.0629 40.1259 51.0629C37.2375 51.0629 34.8874 48.7128 34.8874 45.8244C34.8874 42.9351 37.2375 40.585 40.1259 40.585C43.0143 40.585 45.3653 42.9351 45.3653 45.8244ZM40.1259 43.2719C36.7548 43.2719 36.7539 48.376 40.1259 48.376C43.4988 48.376 43.4979 43.2719 40.1259 43.2719Z" fill="white"/>
</svg>
