<svg width="98" height="103" viewBox="0 0 98 103" fill="none" xmlns="http://www.w3.org/2000/svg">
<path id="Path 54" d="M19.8453 26.0653L25.562 23.0596L31.2769 26.0653L30.186 19.6992L34.811 15.1915L28.4199 14.2637L25.562 8.47169L22.7031 14.2637L16.312 15.1915L20.937 19.6992L19.8453 26.0653ZM24.4872 16.7195L25.562 14.5431L26.6358 16.7195L29.0361 17.0688L27.2995 18.7615L27.7088 21.1528L25.562 20.0243L23.4134 21.1528L23.8235 18.7615L22.087 17.0688L24.4872 16.7195ZM43.8488 17.5927L49.5646 14.587L55.2814 17.5927L54.1888 11.2275L58.8137 6.71983L52.4235 5.79199L49.5646 0L46.7067 5.79199L40.3155 6.71983L44.9406 11.2275L43.8488 17.5927ZM48.4908 8.24777L49.5646 6.07141L50.6394 8.24777L53.0397 8.59706L51.303 10.2898L51.7133 12.6811L49.5646 11.5517L47.4178 12.6811L47.8271 10.2898L46.0897 8.59706L48.4908 8.24777ZM67.8524 26.0653L73.5682 23.0596L79.285 26.0653L78.1923 19.6992L82.8173 15.1915L76.4261 14.2637L73.5682 8.47169L70.7112 14.2637L64.3192 15.1915L68.9441 19.6992L67.8524 26.0653ZM72.4952 16.7195L73.5682 14.5431L74.642 16.7195L77.0432 17.0688L75.3057 18.7615L75.7169 21.1528L73.5682 20.0243L71.4214 21.1528L71.8307 18.7615L70.0932 17.0688L72.4952 16.7195ZM34.5925 40.7929H0.928711V77.2098H34.5925V40.7929ZM17.7602 62.8127C15.3761 62.8127 13.437 60.8736 13.437 58.4895C13.437 56.1044 15.3761 54.1663 17.7602 54.1663C20.1443 54.1663 22.0833 56.1044 22.0833 58.4895C22.0833 60.8736 20.1443 62.8127 17.7602 62.8127ZM25.295 74.5229H9.66016C9.66016 63.5775 25.295 63.4745 25.295 74.5229ZM31.9056 74.5229H27.9819C27.9819 69.5128 25.2664 65.9545 21.537 64.3854C27.4302 60.5969 24.713 51.4795 17.7602 51.4795C10.923 51.4795 8.13226 60.3398 13.78 64.2528C9.86084 65.7333 6.97339 69.3785 6.97339 74.5229H3.6156V43.4798H31.9056V74.5229ZM88.9291 39.3384H59.0779C54.2397 39.3384 50.3044 43.2738 50.3044 48.1119V53.7785L38.2825 68.9736H50.3044V69.9615C50.3044 74.8006 54.2397 78.7359 59.0779 78.7359H88.9291C93.7681 78.7359 97.7034 74.8006 97.7034 69.9615V48.1119C97.7034 43.2738 93.7681 39.3384 88.9291 39.3384ZM95.0166 69.9615C95.0166 73.3183 92.2867 76.0491 88.9291 76.0491H59.0779C55.7212 76.0491 52.9913 73.3183 52.9913 69.9615V66.2868H43.8345L52.9913 54.7127V48.1119C52.9913 44.756 55.7212 42.0253 59.0779 42.0253H88.9291C92.2867 42.0253 95.0166 44.756 95.0166 48.1119V69.9615ZM71.965 52.2649H68.3826V49.578H71.965V52.2649ZM79.13 52.2649H75.5475V49.578H79.13V52.2649ZM64.8 52.2649H61.2176V49.578H64.8V52.2649ZM86.295 52.2649H82.7125V49.578H86.295V52.2649ZM61.2176 57.4219H88.5153V60.1088H61.2176V57.4219ZM61.2176 65.2667H75.0237V67.9535H61.2176V65.2667ZM21.9965 90.0548H75.6514V92.7417H21.9965V90.0548ZM36.0703 100.096H39.6528V102.782H36.0703V100.096ZM43.2352 100.096H46.8178V102.782H43.2352V100.096ZM57.5652 100.096H61.1477V102.782H57.5652V100.096ZM50.4003 100.096H53.9827V102.782H50.4003V100.096Z" fill="white"/>
</svg>
