<svg width="92" height="92" viewBox="0 0 92 92" fill="none" xmlns="http://www.w3.org/2000/svg">
<path id="Path 55" d="M0.716309 0.851074V63.5819H91.0807V0.851074H0.716309ZM88.6384 61.1396H3.15858V3.2934H88.6384V61.1396ZM41.6066 65.9452L38.1524 75.6174H41.7808V78.0598H24.7899V80.6054H22.3476V75.6174H35.5579L39.3051 65.123L41.6066 65.9452ZM68.1233 80.6054V78.0598H51.379V75.6174H54.0639L50.6097 65.9452L52.9103 65.123L56.6584 75.6174H70.5656V80.6054H68.1233ZM72.9036 55.9742H7.17207V7.51691H84.4157V47.598H81.9734V9.95917H9.61436V53.532H72.9036V55.9742ZM41.2582 16.4883H14.8636V39.0728H41.2582V16.4883ZM38.8159 36.6305H17.3059V18.9305H38.8159V36.6305ZM26.4987 33.5997C34.2724 29.46 34.7877 29.5227 34.7877 28.1746C34.7877 27.5509 34.4458 26.981 33.8955 26.688C22.801 20.7793 24.0238 20.1036 24.0238 32.1131C24.0238 33.388 25.3834 34.1964 26.4987 33.5997ZM26.4661 25.4978L31.4907 28.1737L26.4661 30.8496V25.4978ZM79.9227 48.4031C77.3144 48.4031 75.1912 50.5255 75.1912 53.1339C75.1912 55.7422 77.3144 57.8654 79.9227 57.8654C82.5311 57.8654 84.6542 55.7422 84.6542 53.1339C84.6542 50.5255 82.5311 48.4031 79.9227 48.4031ZM77.6335 53.1339C77.6335 50.1095 82.212 50.1095 82.212 53.1339C82.212 56.159 77.6335 56.159 77.6335 53.1339ZM33.4079 47.2863V44.8439H36.6642V47.2863H33.4079ZM26.8951 47.2863V44.8439H30.1515V47.2863H26.8951ZM20.3824 47.2863V44.8439H23.6387V47.2863H20.3824ZM13.8696 44.8439H17.126V47.2863H13.8696V44.8439ZM41.8858 49.205H39.4436V43.1343H41.8858V44.8439H76.6712V47.2863H41.8858V49.205ZM5.70589 82.1758H89.1619V84.6181H5.70589V82.1758ZM63.7614 88.875H67.949V91.3173H63.7614V88.875ZM23.8488 88.875H59.296V91.3173H23.8488V88.875ZM56.9238 39.6044H71.045C74.461 39.6044 77.2403 36.8251 77.2403 33.4091V21.7318C77.2403 18.3159 74.461 15.5365 71.045 15.5365H56.9238C53.5078 15.5365 50.7293 18.3159 50.7293 21.7318V25.1795L44.2557 33.8536H50.7448C50.9727 37.0628 53.6576 39.6044 56.9238 39.6044ZM49.1256 31.4114L53.1716 25.9911V21.7318C53.1716 19.6624 54.8544 17.9789 56.9238 17.9789H71.045C73.1145 17.9789 74.798 19.6624 74.798 21.7318V33.4091C74.798 35.4786 73.1145 37.1621 71.045 37.1621H56.9238C54.8544 37.1621 53.1716 35.4786 53.1716 33.4091V31.4114H49.1256ZM65.5548 25.6858H62.2984V23.2436H65.5548V25.6858ZM59.0421 25.6858H55.7857V23.2436H59.0421V25.6858ZM72.0675 25.6858H68.8112V23.2436H72.0675V25.6858ZM65.9952 31.5783H55.7857V29.136H65.9952V31.5783Z" fill="white"/>
</svg>
