<svg width="95" height="81" viewBox="0 0 95 81" fill="none" xmlns="http://www.w3.org/2000/svg">
<path id="Path 53" d="M93.6393 25.1759H90.9524V19.3159H34.2246V25.1759H31.5378V16.629H93.6393V25.1759ZM63.7631 7.3423C63.7631 3.65055 60.761 0.648449 57.0702 0.648449C53.3793 0.648449 50.3763 3.65055 50.3763 7.3423C50.3763 11.0332 53.3793 14.0353 57.0702 14.0353C60.761 14.0353 63.7631 11.0332 63.7631 7.3423ZM61.0763 7.3423C61.0763 9.55091 59.2787 11.3484 57.0702 11.3484C54.8606 11.3484 53.0631 9.55091 53.0631 7.3423C53.0631 5.13279 54.8606 3.33531 57.0702 3.33531C59.2787 3.33531 61.0763 5.13279 61.0763 7.3423ZM74.6342 7.3423C74.6342 1.97663 68.6111 -1.19118 64.1966 1.79301L65.7012 4.01866C68.3442 2.23277 71.9473 4.1324 71.9473 7.3423C71.9473 10.4627 68.5224 12.373 65.8741 10.7761L64.4859 13.0761C68.9183 15.7495 74.6342 12.5522 74.6342 7.3423ZM93.573 46.9709L87.8858 23.8325H37.2348L33.9416 37.2283L36.5514 37.8696L39.3404 26.5194H85.7802L90.9641 47.6122C94.6935 62.7867 83.2169 77.448 67.574 77.448C57.5171 77.448 51.0865 78.3329 43.6259 73.029L42.0694 75.2197C46.5931 78.435 51.9454 80.1349 57.5466 80.1349H67.574C84.9392 80.1349 97.7251 63.8605 93.573 46.9709ZM84.7278 58.0184L82.135 57.3118C80.4109 63.6456 74.6315 68.4372 67.5749 68.4372C57.7374 68.4372 52.4532 69.3884 47.1144 64.2501L45.2515 66.1865C51.4492 72.1495 57.7248 71.124 67.5749 71.124C75.8773 71.124 82.693 65.4924 84.7278 58.0184ZM84.8237 49.1213L82.2148 49.7626C82.5237 51.0173 82.6715 52.3016 82.6563 53.5797L85.3431 53.6119C85.3611 52.1073 85.1864 50.5964 84.8237 49.1213ZM42.1697 57.6655C42.1697 47.4348 34.1512 39.1118 24.2939 39.1118C14.4385 39.1118 6.4191 47.4348 6.4191 57.6655C6.4191 67.8953 14.4385 76.2192 24.2939 76.2192C34.1512 76.2192 42.1697 67.8953 42.1697 57.6655ZM39.4828 57.6655C39.4828 66.4149 32.6698 73.5324 24.2939 73.5324C15.9199 73.5324 9.10599 66.4149 9.10599 57.6655C9.10599 48.9162 15.9199 41.7987 24.2939 41.7987C32.6698 41.7987 39.4828 48.9162 39.4828 57.6655ZM24.4435 63.7316C22.9406 63.7316 21.9617 62.8557 21.9617 60.8862H18.7178L18.6954 60.9435C18.6408 63.9555 20.3425 65.7109 22.9729 66.2474V68.49H25.9482V66.2357C30.4666 65.4136 30.7299 60.4213 28.6834 58.5191C27.8746 57.7677 26.6324 57.0619 24.9549 56.4018C23.5282 55.8385 22.5878 55.2885 22.5878 53.8753C22.5878 51.0926 26.5831 50.8319 26.5831 54.615H29.8271L29.8611 54.5577C29.8916 51.6452 28.1075 49.7375 26.1757 49.3103V46.841H23.2004V49.2879C22.2851 49.2879 19.2641 50.5919 19.2641 53.8636C19.2641 59.6189 26.5831 57.9692 26.5831 61.6949C26.5831 62.8888 25.8801 63.7316 24.4435 63.7316ZM9.6738 73.9013C8.87579 73.1329 8.12976 72.2911 7.45535 71.3999L5.36407 73.0407C6.12268 74.0411 6.96188 74.9878 7.8584 75.852L9.6738 73.9013ZM5.63812 68.5787C5.10703 67.5971 4.64398 66.5635 4.26334 65.5076L1.78516 66.4337C2.21149 67.6168 2.73004 68.7748 3.32654 69.8755L5.63812 68.5787ZM3.35788 62.2592C3.13669 61.162 2.99515 60.0344 2.93607 58.9069L0.299316 59.0502C0.365631 60.3094 0.524109 61.5704 0.770447 62.7975L3.35788 62.2592ZM3.55133 52.1924L0.988068 51.5511C0.69339 52.7692 0.486511 54.0221 0.371887 55.276L3.00052 55.5241C3.10352 54.4028 3.28806 53.2815 3.55133 52.1924ZM6.08057 45.9723L3.82272 44.5814C3.18234 45.6571 2.6181 46.7936 2.14523 47.9579L4.5849 48.9852C5.00671 47.9454 5.51007 46.9324 6.08057 45.9723ZM10.3285 40.8243L8.5946 38.7983C7.66312 39.6232 6.78632 40.5332 5.98743 41.5022L8.00974 43.229C8.72089 42.3665 9.50095 41.5578 10.3285 40.8243ZM15.9181 37.2856L14.906 34.8039C13.7641 35.2866 12.6482 35.8715 11.5895 36.5423L12.9858 38.8225C13.9217 38.2297 14.9087 37.712 15.9181 37.2856Z" fill="white"/>
</svg>
